%TF.GenerationSoftware,KiCad,Pcbnew,6.0.1-79c1e3a40b~116~ubuntu20.04.1*%
%TF.CreationDate,2022-01-22T21:44:11+01:00*%
%TF.ProjectId,Step_Down_Converter,53746570-5f44-46f7-976e-5f436f6e7665,rev?*%
%TF.SameCoordinates,Original*%
%TF.FileFunction,Other,User*%
%FSLAX46Y46*%
G04 Gerber Fmt 4.6, Leading zero omitted, Abs format (unit mm)*
G04 Created by KiCad (PCBNEW 6.0.1-79c1e3a40b~116~ubuntu20.04.1) date 2022-01-22 21:44:12*
%MOMM*%
%LPD*%
G01*
G04 APERTURE LIST*
%ADD10C,0.050000*%
G04 APERTURE END LIST*
D10*
X190750000Y-112100000D02*
X196900000Y-112100000D01*
X196900000Y-108500000D02*
X190750000Y-108500000D01*
X196900000Y-112100000D02*
X196900000Y-108500000D01*
X190750000Y-108500000D02*
X190750000Y-112100000D01*
X200045000Y-116880000D02*
X200045000Y-113920000D01*
X201505000Y-116880000D02*
X200045000Y-116880000D01*
X200045000Y-113920000D02*
X201505000Y-113920000D01*
X201505000Y-113920000D02*
X201505000Y-116880000D01*
X173970000Y-128030000D02*
X175830000Y-128030000D01*
X173970000Y-128970000D02*
X173970000Y-128030000D01*
X175830000Y-128030000D02*
X175830000Y-128970000D01*
X175830000Y-128970000D02*
X173970000Y-128970000D01*
X183850000Y-117700000D02*
X186150000Y-117700000D01*
X183850000Y-122300000D02*
X183850000Y-117700000D01*
X186150000Y-117700000D02*
X186150000Y-122300000D01*
X186150000Y-122300000D02*
X183850000Y-122300000D01*
X174920000Y-120345000D02*
X174920000Y-122205000D01*
X174920000Y-122205000D02*
X173980000Y-122205000D01*
X173980000Y-120345000D02*
X174920000Y-120345000D01*
X173980000Y-122205000D02*
X173980000Y-120345000D01*
X193650000Y-116450000D02*
X193650000Y-121050000D01*
X191350000Y-121050000D02*
X191350000Y-116450000D01*
X193650000Y-121050000D02*
X191350000Y-121050000D01*
X191350000Y-116450000D02*
X193650000Y-116450000D01*
X211550000Y-111400000D02*
G75*
G03*
X211550000Y-111400000I-3450000J0D01*
G01*
X175870000Y-128970000D02*
X175870000Y-128030000D01*
X177730000Y-128030000D02*
X177730000Y-128970000D01*
X175870000Y-128030000D02*
X177730000Y-128030000D01*
X177730000Y-128970000D02*
X175870000Y-128970000D01*
X193475000Y-144570000D02*
X194415000Y-144570000D01*
X194415000Y-146430000D02*
X193475000Y-146430000D01*
X193475000Y-146430000D02*
X193475000Y-144570000D01*
X194415000Y-144570000D02*
X194415000Y-146430000D01*
X177500000Y-135150000D02*
G75*
G03*
X177500000Y-135150000I-750000J0D01*
G01*
X201558000Y-128550000D02*
X201558000Y-132150000D01*
X210208000Y-128550000D02*
X201558000Y-128550000D01*
X201558000Y-132150000D02*
X210208000Y-132150000D01*
X210208000Y-132150000D02*
X210208000Y-128550000D01*
X190675000Y-115150000D02*
X190675000Y-109200000D01*
X188175000Y-116300000D02*
X189525000Y-116300000D01*
X189525000Y-116300000D02*
X190675000Y-115150000D01*
X184725000Y-116300000D02*
X183575000Y-115150000D01*
X184725000Y-116300000D02*
X186075000Y-116300000D01*
X186075000Y-108050000D02*
X188175000Y-108050000D01*
X183575000Y-115150000D02*
X183575000Y-109200000D01*
X188175000Y-117450000D02*
X188175000Y-116300000D01*
X186075000Y-116300000D02*
X186075000Y-117450000D01*
X186075000Y-109200000D02*
X186075000Y-108050000D01*
X188175000Y-109200000D02*
X190675000Y-109200000D01*
X183575000Y-109200000D02*
X186075000Y-109200000D01*
X186075000Y-117450000D02*
X188175000Y-117450000D01*
X188175000Y-108050000D02*
X188175000Y-109200000D01*
X197095000Y-113695000D02*
X197095000Y-115555000D01*
X196155000Y-113695000D02*
X197095000Y-113695000D01*
X197095000Y-115555000D02*
X196155000Y-115555000D01*
X196155000Y-115555000D02*
X196155000Y-113695000D01*
X190732000Y-146430000D02*
X189792000Y-146430000D01*
X189792000Y-146430000D02*
X189792000Y-144570000D01*
X190732000Y-144570000D02*
X190732000Y-146430000D01*
X189792000Y-144570000D02*
X190732000Y-144570000D01*
X192145000Y-144500000D02*
X195745000Y-144500000D01*
X192145000Y-135850000D02*
X192145000Y-144500000D01*
X195745000Y-144500000D02*
X195745000Y-135850000D01*
X195745000Y-135850000D02*
X192145000Y-135850000D01*
X212130000Y-132205000D02*
X212130000Y-133145000D01*
X210270000Y-132205000D02*
X212130000Y-132205000D01*
X210270000Y-133145000D02*
X210270000Y-132205000D01*
X212130000Y-133145000D02*
X210270000Y-133145000D01*
X205550000Y-139300000D02*
G75*
G03*
X205550000Y-139300000I-750000J0D01*
G01*
X181675000Y-133850000D02*
X179375000Y-133850000D01*
X179375000Y-133850000D02*
X179375000Y-129250000D01*
X179375000Y-129250000D02*
X181675000Y-129250000D01*
X181675000Y-129250000D02*
X181675000Y-133850000D01*
X195149000Y-113715000D02*
X196069000Y-113715000D01*
X196069000Y-115535000D02*
X195149000Y-115535000D01*
X196069000Y-113715000D02*
X196069000Y-115535000D01*
X195149000Y-115535000D02*
X195149000Y-113715000D01*
X176245000Y-139431000D02*
X176245000Y-141291000D01*
X176245000Y-141291000D02*
X175305000Y-141291000D01*
X175305000Y-141291000D02*
X175305000Y-139431000D01*
X175305000Y-139431000D02*
X176245000Y-139431000D01*
X205905000Y-118220000D02*
X205905000Y-121180000D01*
X204445000Y-118220000D02*
X205905000Y-118220000D01*
X205905000Y-121180000D02*
X204445000Y-121180000D01*
X204445000Y-121180000D02*
X204445000Y-118220000D01*
X201558000Y-132200000D02*
X201558000Y-135800000D01*
X210208000Y-135800000D02*
X210208000Y-132200000D01*
X210208000Y-132200000D02*
X201558000Y-132200000D01*
X201558000Y-135800000D02*
X210208000Y-135800000D01*
X181915000Y-129250000D02*
X184215000Y-129250000D01*
X184215000Y-129250000D02*
X184215000Y-133850000D01*
X184215000Y-133850000D02*
X181915000Y-133850000D01*
X181915000Y-133850000D02*
X181915000Y-129250000D01*
X188856500Y-122356500D02*
X199643500Y-122356500D01*
X199643500Y-122356500D02*
X199643500Y-133143500D01*
X199643500Y-133143500D02*
X188856500Y-133143500D01*
X188856500Y-133143500D02*
X188856500Y-122356500D01*
X180385000Y-139431000D02*
X181325000Y-139431000D01*
X180385000Y-141291000D02*
X180385000Y-139431000D01*
X181325000Y-141291000D02*
X180385000Y-141291000D01*
X181325000Y-139431000D02*
X181325000Y-141291000D01*
X210208000Y-121250000D02*
X201558000Y-121250000D01*
X210208000Y-124850000D02*
X210208000Y-121250000D01*
X201558000Y-121250000D02*
X201558000Y-124850000D01*
X201558000Y-124850000D02*
X210208000Y-124850000D01*
X184215000Y-134750000D02*
X184215000Y-139350000D01*
X184215000Y-139350000D02*
X181915000Y-139350000D01*
X181915000Y-139350000D02*
X181915000Y-134750000D01*
X181915000Y-134750000D02*
X184215000Y-134750000D01*
X198098000Y-144570000D02*
X198098000Y-146430000D01*
X197158000Y-144570000D02*
X198098000Y-144570000D01*
X197158000Y-146430000D02*
X197158000Y-144570000D01*
X198098000Y-146430000D02*
X197158000Y-146430000D01*
X188650000Y-122300000D02*
X186350000Y-122300000D01*
X186350000Y-117700000D02*
X188650000Y-117700000D01*
X186350000Y-122300000D02*
X186350000Y-117700000D01*
X188650000Y-117700000D02*
X188650000Y-122300000D01*
X199511000Y-135850000D02*
X199511000Y-144500000D01*
X203111000Y-144500000D02*
X203111000Y-135850000D01*
X199511000Y-144500000D02*
X203111000Y-144500000D01*
X203111000Y-135850000D02*
X199511000Y-135850000D01*
X190745000Y-115130000D02*
X190745000Y-112170000D01*
X192205000Y-115130000D02*
X190745000Y-115130000D01*
X190745000Y-112170000D02*
X192205000Y-112170000D01*
X192205000Y-112170000D02*
X192205000Y-115130000D01*
X183865000Y-139431000D02*
X183865000Y-141291000D01*
X183865000Y-141291000D02*
X182925000Y-141291000D01*
X182925000Y-141291000D02*
X182925000Y-139431000D01*
X182925000Y-139431000D02*
X183865000Y-139431000D01*
X176225000Y-115400000D02*
X176225000Y-120000000D01*
X173925000Y-120000000D02*
X173925000Y-115400000D01*
X176225000Y-120000000D02*
X173925000Y-120000000D01*
X173925000Y-115400000D02*
X176225000Y-115400000D01*
X205250000Y-117700000D02*
G75*
G03*
X205250000Y-117700000I-750000J0D01*
G01*
X201558000Y-124900000D02*
X201558000Y-128500000D01*
X210208000Y-128500000D02*
X210208000Y-124900000D01*
X201558000Y-128500000D02*
X210208000Y-128500000D01*
X210208000Y-124900000D02*
X201558000Y-124900000D01*
X186755000Y-134750000D02*
X186755000Y-139350000D01*
X184455000Y-139350000D02*
X184455000Y-134750000D01*
X184455000Y-134750000D02*
X186755000Y-134750000D01*
X186755000Y-139350000D02*
X184455000Y-139350000D01*
X186200800Y-144310000D02*
X186200800Y-146130000D01*
X185280800Y-146130000D02*
X185280800Y-144310000D01*
X186200800Y-146130000D02*
X185280800Y-146130000D01*
X185280800Y-144310000D02*
X186200800Y-144310000D01*
X205975000Y-121200000D02*
X212125000Y-121200000D01*
X212125000Y-121200000D02*
X212125000Y-117600000D01*
X212125000Y-117600000D02*
X205975000Y-117600000D01*
X205975000Y-117600000D02*
X205975000Y-121200000D01*
X188065600Y-145700000D02*
G75*
G03*
X188065600Y-145700000I-750000J0D01*
G01*
X205550000Y-114700000D02*
G75*
G03*
X205550000Y-114700000I-750000J0D01*
G01*
X179375000Y-134750000D02*
X181675000Y-134750000D01*
X179375000Y-139350000D02*
X179375000Y-134750000D01*
X181675000Y-139350000D02*
X179375000Y-139350000D01*
X181675000Y-134750000D02*
X181675000Y-139350000D01*
X186917000Y-136586000D02*
X186917000Y-133626000D01*
X188377000Y-133626000D02*
X188377000Y-136586000D01*
X188377000Y-136586000D02*
X186917000Y-136586000D01*
X186917000Y-133626000D02*
X188377000Y-133626000D01*
X164412500Y-147500000D02*
X164412500Y-127000000D01*
X173912500Y-127000000D02*
X173912500Y-147500000D01*
X173912500Y-147500000D02*
X164412500Y-147500000D01*
X164412500Y-127000000D02*
X173912500Y-127000000D01*
X195112750Y-115937500D02*
X195112750Y-120437500D01*
X195112750Y-120437500D02*
X199612750Y-120437500D01*
X199612750Y-120437500D02*
X199612750Y-115937500D01*
X199612750Y-115937500D02*
X195112750Y-115937500D01*
X203005000Y-116945000D02*
X203005000Y-118405000D01*
X203005000Y-118405000D02*
X200045000Y-118405000D01*
X200045000Y-116945000D02*
X203005000Y-116945000D01*
X200045000Y-118405000D02*
X200045000Y-116945000D01*
X182050000Y-124500000D02*
G75*
G03*
X182050000Y-124500000I-3450000J0D01*
G01*
X204050000Y-145025000D02*
G75*
G03*
X204050000Y-145025000I-750000J0D01*
G01*
X193727750Y-119097500D02*
X193727750Y-117277500D01*
X193727750Y-117277500D02*
X194647750Y-117277500D01*
X194647750Y-119097500D02*
X193727750Y-119097500D01*
X194647750Y-117277500D02*
X194647750Y-119097500D01*
X212460000Y-127025000D02*
G75*
G03*
X212460000Y-127025000I-750000J0D01*
G01*
X175920000Y-122205000D02*
X174980000Y-122205000D01*
X175920000Y-120345000D02*
X175920000Y-122205000D01*
X174980000Y-122205000D02*
X174980000Y-120345000D01*
X174980000Y-120345000D02*
X175920000Y-120345000D01*
X179425000Y-129050000D02*
G75*
G03*
X179425000Y-129050000I-750000J0D01*
G01*
X212130000Y-124905000D02*
X212130000Y-125845000D01*
X210270000Y-125845000D02*
X210270000Y-124905000D01*
X210270000Y-124905000D02*
X212130000Y-124905000D01*
X212130000Y-125845000D02*
X210270000Y-125845000D01*
X173985000Y-141350000D02*
X173985000Y-147500000D01*
X173985000Y-147500000D02*
X185185000Y-147500000D01*
X185185000Y-147500000D02*
X185185000Y-141350000D01*
X185185000Y-141350000D02*
X173985000Y-141350000D01*
X177845000Y-141291000D02*
X177845000Y-139431000D01*
X178785000Y-139431000D02*
X178785000Y-141291000D01*
X178785000Y-141291000D02*
X177845000Y-141291000D01*
X177845000Y-139431000D02*
X178785000Y-139431000D01*
X164412500Y-106850000D02*
X173912500Y-106850000D01*
X173912500Y-106850000D02*
X173912500Y-127350000D01*
X164412500Y-127350000D02*
X164412500Y-106850000D01*
X173912500Y-127350000D02*
X164412500Y-127350000D01*
X193475000Y-112575000D02*
G75*
G03*
X193475000Y-112575000I-750000J0D01*
G01*
X199428000Y-144500000D02*
X199428000Y-135850000D01*
X195828000Y-135850000D02*
X195828000Y-144500000D01*
X199428000Y-135850000D02*
X195828000Y-135850000D01*
X195828000Y-144500000D02*
X199428000Y-144500000D01*
X191150000Y-116450000D02*
X191150000Y-121050000D01*
X191150000Y-121050000D02*
X188850000Y-121050000D01*
X188850000Y-121050000D02*
X188850000Y-116450000D01*
X188850000Y-116450000D02*
X191150000Y-116450000D01*
X181000000Y-120000000D02*
X176300000Y-120000000D01*
X176300000Y-117600000D02*
X181000000Y-117600000D01*
X181000000Y-117600000D02*
X181000000Y-120000000D01*
X176300000Y-120000000D02*
X176300000Y-117600000D01*
X200950000Y-120900000D02*
G75*
G03*
X200950000Y-120900000I-750000J0D01*
G01*
X178900000Y-108050000D02*
X181000000Y-108050000D01*
X183500000Y-115150000D02*
X183500000Y-109200000D01*
X181000000Y-108050000D02*
X181000000Y-109200000D01*
X181000000Y-117450000D02*
X181000000Y-116300000D01*
X182350000Y-116300000D02*
X183500000Y-115150000D01*
X178900000Y-116300000D02*
X178900000Y-117450000D01*
X181000000Y-116300000D02*
X182350000Y-116300000D01*
X177550000Y-116300000D02*
X178900000Y-116300000D01*
X178900000Y-109200000D02*
X178900000Y-108050000D01*
X181000000Y-109200000D02*
X183500000Y-109200000D01*
X176400000Y-115150000D02*
X176400000Y-109200000D01*
X176400000Y-109200000D02*
X178900000Y-109200000D01*
X178900000Y-117450000D02*
X181000000Y-117450000D01*
X177550000Y-116300000D02*
X176400000Y-115150000D01*
X181350000Y-117700000D02*
X183650000Y-117700000D01*
X183650000Y-117700000D02*
X183650000Y-122300000D01*
X183650000Y-122300000D02*
X181350000Y-122300000D01*
X181350000Y-122300000D02*
X181350000Y-117700000D01*
X210270000Y-122195000D02*
X210270000Y-121255000D01*
X212130000Y-121255000D02*
X212130000Y-122195000D01*
X212130000Y-122195000D02*
X210270000Y-122195000D01*
X210270000Y-121255000D02*
X212130000Y-121255000D01*
X192062000Y-144500000D02*
X192062000Y-135850000D01*
X188462000Y-135850000D02*
X188462000Y-144500000D01*
X188462000Y-144500000D02*
X192062000Y-144500000D01*
X192062000Y-135850000D02*
X188462000Y-135850000D01*
X200841000Y-144570000D02*
X201781000Y-144570000D01*
X201781000Y-144570000D02*
X201781000Y-146430000D01*
X200841000Y-146430000D02*
X200841000Y-144570000D01*
X201781000Y-146430000D02*
X200841000Y-146430000D01*
X194937750Y-116155500D02*
G75*
G03*
X194937750Y-116155500I-750000J0D01*
G01*
X184455000Y-129250000D02*
X186755000Y-129250000D01*
X184455000Y-133850000D02*
X184455000Y-129250000D01*
X186755000Y-129250000D02*
X186755000Y-133850000D01*
X186755000Y-133850000D02*
X184455000Y-133850000D01*
X212130000Y-129495000D02*
X210270000Y-129495000D01*
X210270000Y-129495000D02*
X210270000Y-128555000D01*
X212130000Y-128555000D02*
X212130000Y-129495000D01*
X210270000Y-128555000D02*
X212130000Y-128555000D01*
X211550000Y-142650000D02*
G75*
G03*
X211550000Y-142650000I-3450000J0D01*
G01*
X203160750Y-120180000D02*
X200200750Y-120180000D01*
X203160750Y-118720000D02*
X203160750Y-120180000D01*
X200200750Y-120180000D02*
X200200750Y-118720000D01*
X200200750Y-118720000D02*
X203160750Y-118720000D01*
M02*
