%TF.GenerationSoftware,KiCad,Pcbnew,6.0.1-79c1e3a40b~116~ubuntu20.04.1*%
%TF.CreationDate,2022-01-22T21:44:11+01:00*%
%TF.ProjectId,Step_Down_Converter,53746570-5f44-46f7-976e-5f436f6e7665,rev?*%
%TF.SameCoordinates,Original*%
%TF.FileFunction,Soldermask,Bot*%
%TF.FilePolarity,Negative*%
%FSLAX46Y46*%
G04 Gerber Fmt 4.6, Leading zero omitted, Abs format (unit mm)*
G04 Created by KiCad (PCBNEW 6.0.1-79c1e3a40b~116~ubuntu20.04.1) date 2022-01-22 21:44:11*
%MOMM*%
%LPD*%
G01*
G04 APERTURE LIST*
%ADD10R,1.700000X1.700000*%
%ADD11O,1.700000X1.700000*%
%ADD12C,6.400000*%
%ADD13R,1.950000X1.950000*%
%ADD14C,1.950000*%
%ADD15C,0.400000*%
%ADD16C,0.800000*%
G04 APERTURE END LIST*
D10*
X192550000Y-110300000D03*
D11*
X195090000Y-110300000D03*
D12*
X208100000Y-111400000D03*
D10*
X203358000Y-130350000D03*
D11*
X205898000Y-130350000D03*
X208438000Y-130350000D03*
D10*
X193945000Y-137650000D03*
D11*
X193945000Y-140190000D03*
X193945000Y-142730000D03*
D10*
X203358000Y-134000000D03*
D11*
X205898000Y-134000000D03*
X208438000Y-134000000D03*
D10*
X203358000Y-123050000D03*
D11*
X205898000Y-123050000D03*
X208438000Y-123050000D03*
D10*
X201311000Y-137650000D03*
D11*
X201311000Y-140190000D03*
X201311000Y-142730000D03*
D10*
X203358000Y-126700000D03*
D11*
X205898000Y-126700000D03*
X208438000Y-126700000D03*
D10*
X207775000Y-119400000D03*
D11*
X210315000Y-119400000D03*
D13*
X168662500Y-129750000D03*
D14*
X168662500Y-134750000D03*
X168662500Y-139750000D03*
X168662500Y-144750000D03*
D12*
X178600000Y-124500000D03*
D10*
X175785000Y-145700000D03*
D11*
X175785000Y-143160000D03*
X178325000Y-145700000D03*
X178325000Y-143160000D03*
X180865000Y-145700000D03*
X180865000Y-143160000D03*
X183405000Y-145700000D03*
X183405000Y-143160000D03*
D13*
X168662500Y-109600000D03*
D14*
X168662500Y-114600000D03*
X168662500Y-119600000D03*
X168662500Y-124600000D03*
D10*
X197628000Y-137650000D03*
D11*
X197628000Y-140190000D03*
X197628000Y-142730000D03*
D10*
X190262000Y-137650000D03*
D11*
X190262000Y-140190000D03*
X190262000Y-142730000D03*
D12*
X208100000Y-142650000D03*
D15*
X165000000Y-124150000D03*
X183000000Y-106900000D03*
X196950000Y-119200000D03*
X178100000Y-128200000D03*
X165000000Y-109400000D03*
X172500000Y-144900000D03*
X199100000Y-121700000D03*
X184000000Y-147400000D03*
D16*
X188500000Y-124500000D03*
D15*
X193000000Y-145200000D03*
X213000000Y-122400000D03*
X178200000Y-129800000D03*
X197400000Y-114000000D03*
X196000000Y-138400000D03*
X204500000Y-109400000D03*
D16*
X192000000Y-129000000D03*
D15*
X213000000Y-126900000D03*
X180800000Y-128800000D03*
X203382550Y-119500000D03*
X175800000Y-127200000D03*
D16*
X190000000Y-129000000D03*
D15*
X193000000Y-147450000D03*
X206000000Y-106800000D03*
X203500000Y-136400000D03*
X196000000Y-136000000D03*
X199825000Y-114575000D03*
X212600000Y-113400000D03*
X187500000Y-106900000D03*
X210800000Y-130800000D03*
D16*
X196000000Y-129000000D03*
D15*
X188000000Y-129800000D03*
X176500000Y-137400000D03*
X186800000Y-128800000D03*
D16*
X185500000Y-124500000D03*
D15*
X192400000Y-113300000D03*
X204500000Y-112400000D03*
X177000000Y-140900000D03*
D16*
X182500000Y-126000000D03*
D15*
X166500000Y-107400000D03*
X210500000Y-106900000D03*
X192000000Y-106900000D03*
D16*
X194000000Y-129000000D03*
D15*
X175000000Y-147400000D03*
X198000000Y-118500000D03*
X183000000Y-109400000D03*
X211000000Y-133800000D03*
X169500000Y-112400000D03*
D16*
X187000000Y-123000000D03*
D15*
X173000000Y-124150000D03*
X199000000Y-106900000D03*
X183000000Y-112400000D03*
X206400000Y-120000000D03*
X169500000Y-106900000D03*
X204500000Y-121400000D03*
X165000000Y-112400000D03*
X178400000Y-120800000D03*
X197500000Y-147450000D03*
X187500000Y-144900000D03*
D16*
X185500000Y-123000000D03*
D15*
X199000000Y-112400000D03*
X202700000Y-121700000D03*
D16*
X198000000Y-129000000D03*
D15*
X165000000Y-126600000D03*
X208200000Y-137200000D03*
X204200000Y-141800000D03*
D16*
X187000000Y-124500000D03*
D15*
X169000000Y-126600000D03*
X200200000Y-145200000D03*
X213000000Y-135900000D03*
D16*
X190000000Y-127000000D03*
D15*
X194800000Y-145200000D03*
X169000000Y-121900000D03*
X169000000Y-137400000D03*
X202300000Y-116800000D03*
X188500000Y-147450000D03*
D16*
X182500000Y-123000000D03*
X184000000Y-124500000D03*
D15*
X211000000Y-127000000D03*
D16*
X198000000Y-127000000D03*
D15*
X202000000Y-147450000D03*
X183200000Y-128400000D03*
X187500000Y-112400000D03*
X184800000Y-144400000D03*
D16*
X196000000Y-127000000D03*
D15*
X182000000Y-140900000D03*
X202500000Y-124800000D03*
X196950000Y-118500000D03*
D16*
X184000000Y-127500000D03*
D15*
X213000000Y-140400000D03*
X202500000Y-132200000D03*
X165000000Y-121900000D03*
X199521750Y-116155500D03*
X199500000Y-138400000D03*
D16*
X187000000Y-126000000D03*
D15*
X199500000Y-136000000D03*
X213000000Y-117900000D03*
X199000000Y-145200000D03*
X211200000Y-120900000D03*
D16*
X188500000Y-123000000D03*
D15*
X165000000Y-137400000D03*
X204400000Y-119600000D03*
X174000000Y-109400000D03*
D16*
X184000000Y-126000000D03*
X182500000Y-127500000D03*
D15*
X196000000Y-118500000D03*
X213000000Y-144900000D03*
X210500000Y-116900000D03*
D16*
X185500000Y-127500000D03*
D15*
X166000000Y-147400000D03*
X189500000Y-145600000D03*
X199000000Y-109400000D03*
X174000000Y-106900000D03*
D16*
X187000000Y-127500000D03*
D15*
X187500000Y-142400000D03*
X173000000Y-121900000D03*
X187500000Y-138400000D03*
X174000000Y-112400000D03*
X196500000Y-109400000D03*
X191200000Y-145200000D03*
X182000000Y-144400000D03*
X198000000Y-117400000D03*
D16*
X182500000Y-124500000D03*
D15*
X204000000Y-114400000D03*
X205500000Y-124600000D03*
X170500000Y-147400000D03*
X202000000Y-114400000D03*
D16*
X185500000Y-126000000D03*
D15*
X204400000Y-138400000D03*
X175000000Y-137400000D03*
X169000000Y-141900000D03*
X206500000Y-147450000D03*
X201300000Y-120300000D03*
X202200000Y-145200000D03*
X196500000Y-112400000D03*
X213000000Y-131400000D03*
X178500000Y-112400000D03*
X178000000Y-117000000D03*
X211000000Y-147450000D03*
D16*
X184000000Y-123000000D03*
X192000000Y-127000000D03*
D15*
X196000000Y-119200000D03*
X207000000Y-116900000D03*
D16*
X188500000Y-127500000D03*
D15*
X205500000Y-132000000D03*
X175000000Y-141900000D03*
X184600000Y-140900000D03*
D16*
X188500000Y-126000000D03*
D15*
X173000000Y-126600000D03*
X202000000Y-109400000D03*
X179600000Y-140900000D03*
X201600000Y-116800000D03*
X165000000Y-146400000D03*
X191500000Y-111650000D03*
X202600000Y-135400000D03*
X196500000Y-106900000D03*
X192000000Y-135900000D03*
X177000000Y-144400000D03*
X202500000Y-128400000D03*
X202000000Y-112400000D03*
X172500000Y-139900000D03*
X205500000Y-128200000D03*
D16*
X194000000Y-127000000D03*
X181000000Y-127500000D03*
D15*
X196800000Y-145200000D03*
X188600000Y-135900000D03*
X178500000Y-109400000D03*
X210800000Y-123200000D03*
X194800000Y-114400000D03*
X192000000Y-138400000D03*
X178500000Y-106900000D03*
X174400000Y-117000000D03*
X165000000Y-141900000D03*
X179500000Y-147400000D03*
X212500000Y-108900000D03*
X179585000Y-144425000D03*
X199050000Y-114950000D03*
D16*
X192000000Y-115500000D03*
X189600000Y-114500000D03*
X191200000Y-118300000D03*
X193500000Y-115500000D03*
X182050000Y-115450000D03*
X183800000Y-119500000D03*
X182000000Y-114000000D03*
X192600000Y-114500000D03*
X183500000Y-114000000D03*
X194800000Y-115700000D03*
X185050000Y-115450000D03*
X183550000Y-115450000D03*
X190500000Y-115500000D03*
X183500000Y-117000000D03*
X185000000Y-117000000D03*
X182000000Y-117000000D03*
X185000000Y-114000000D03*
D15*
X196150000Y-117450000D03*
D16*
X186200000Y-119500000D03*
X189000000Y-115500000D03*
D15*
X200100000Y-118325000D03*
X204499511Y-118325000D03*
X188000000Y-145875000D03*
X201950000Y-115700000D03*
D16*
X165000000Y-130500000D03*
X192000000Y-131500000D03*
X171000000Y-132000000D03*
X192000000Y-134000000D03*
X165000000Y-133500000D03*
X171000000Y-136000000D03*
X198500000Y-134000000D03*
X175500000Y-134000000D03*
X169500000Y-132000000D03*
X196500000Y-131500000D03*
X175500000Y-136000000D03*
X172500000Y-134000000D03*
X178500000Y-136000000D03*
X196500000Y-134000000D03*
X166500000Y-132000000D03*
X165000000Y-129000000D03*
X175500000Y-132000000D03*
X165000000Y-135000000D03*
X198500000Y-131500000D03*
X177000000Y-134000000D03*
X166500000Y-136500000D03*
X188000000Y-132600000D03*
X166500000Y-130500000D03*
X172500000Y-136000000D03*
X168000000Y-136500000D03*
X177000000Y-132000000D03*
X171000000Y-134000000D03*
X174000000Y-130500000D03*
X166500000Y-129000000D03*
X172500000Y-128500000D03*
X171000000Y-128500000D03*
X175500000Y-130500000D03*
X172500000Y-130500000D03*
X172600000Y-131900000D03*
X165000000Y-136500000D03*
X177000000Y-136000000D03*
X174000000Y-132000000D03*
X174000000Y-134000000D03*
X178500000Y-132000000D03*
D15*
X199050000Y-115575000D03*
X175775000Y-139175000D03*
D16*
X178500000Y-134000000D03*
X166500000Y-135000000D03*
X171000000Y-130500000D03*
X165000000Y-132000000D03*
X190000000Y-134000000D03*
X174000000Y-136000000D03*
X169500000Y-136500000D03*
X168000000Y-132000000D03*
X166500000Y-133500000D03*
X190000000Y-131500000D03*
X171000000Y-117000000D03*
X171000000Y-120000000D03*
X173000000Y-120000000D03*
X171000000Y-118500000D03*
X165000000Y-115500000D03*
X165000000Y-118500000D03*
X173000000Y-117000000D03*
X165000000Y-117000000D03*
X169000000Y-117000000D03*
X167000000Y-114000000D03*
X165000000Y-120000000D03*
X173000000Y-114000000D03*
X171000000Y-114000000D03*
X167000000Y-118500000D03*
X167000000Y-117000000D03*
X167000000Y-120000000D03*
X165000000Y-114000000D03*
X173000000Y-118500000D03*
X173000000Y-115500000D03*
X167000000Y-115500000D03*
X171000000Y-115500000D03*
G36*
X205342121Y-106170002D02*
G01*
X205388614Y-106223658D01*
X205400000Y-106276000D01*
X205400000Y-108374000D01*
X205379998Y-108442121D01*
X205326342Y-108488614D01*
X205274000Y-108500000D01*
X199526000Y-108500000D01*
X199457879Y-108479998D01*
X199411386Y-108426342D01*
X199400000Y-108374000D01*
X199400000Y-106276000D01*
X199420002Y-106207879D01*
X199473658Y-106161386D01*
X199526000Y-106150000D01*
X205274000Y-106150000D01*
X205342121Y-106170002D01*
G37*
M02*
