%TF.GenerationSoftware,KiCad,Pcbnew,6.0.1-79c1e3a40b~116~ubuntu20.04.1*%
%TF.CreationDate,2022-01-22T21:44:13+01:00*%
%TF.ProjectId,Step_Down_Converter,53746570-5f44-46f7-976e-5f436f6e7665,rev?*%
%TF.SameCoordinates,Original*%
%TF.FileFunction,AssemblyDrawing,Top*%
%FSLAX46Y46*%
G04 Gerber Fmt 4.6, Leading zero omitted, Abs format (unit mm)*
G04 Created by KiCad (PCBNEW 6.0.1-79c1e3a40b~116~ubuntu20.04.1) date 2022-01-22 21:44:13*
%MOMM*%
%LPD*%
G01*
G04 APERTURE LIST*
%ADD10C,0.070000*%
%ADD11C,0.100000*%
%ADD12C,0.127000*%
%ADD13C,0.200000*%
%ADD14C,0.220000*%
G04 APERTURE END LIST*
D10*
X175992857Y-133371428D02*
X176335714Y-133371428D01*
X176164285Y-133971428D02*
X176164285Y-133371428D01*
X176535714Y-133971428D02*
X176535714Y-133371428D01*
X176764285Y-133371428D01*
X176821428Y-133400000D01*
X176850000Y-133428571D01*
X176878571Y-133485714D01*
X176878571Y-133571428D01*
X176850000Y-133628571D01*
X176821428Y-133657142D01*
X176764285Y-133685714D01*
X176535714Y-133685714D01*
X177078571Y-133371428D02*
X177478571Y-133371428D01*
X177221428Y-133971428D01*
X203742857Y-115921428D02*
X204085714Y-115921428D01*
X203914285Y-116521428D02*
X203914285Y-115921428D01*
X204285714Y-116521428D02*
X204285714Y-115921428D01*
X204514285Y-115921428D01*
X204571428Y-115950000D01*
X204600000Y-115978571D01*
X204628571Y-116035714D01*
X204628571Y-116121428D01*
X204600000Y-116178571D01*
X204571428Y-116207142D01*
X204514285Y-116235714D01*
X204285714Y-116235714D01*
X204828571Y-115921428D02*
X205200000Y-115921428D01*
X205000000Y-116150000D01*
X205085714Y-116150000D01*
X205142857Y-116178571D01*
X205171428Y-116207142D01*
X205200000Y-116264285D01*
X205200000Y-116407142D01*
X205171428Y-116464285D01*
X205142857Y-116492857D01*
X205085714Y-116521428D01*
X204914285Y-116521428D01*
X204857142Y-116492857D01*
X204828571Y-116464285D01*
X202542857Y-143246428D02*
X202885714Y-143246428D01*
X202714285Y-143846428D02*
X202714285Y-143246428D01*
X203085714Y-143846428D02*
X203085714Y-143246428D01*
X203314285Y-143246428D01*
X203371428Y-143275000D01*
X203400000Y-143303571D01*
X203428571Y-143360714D01*
X203428571Y-143446428D01*
X203400000Y-143503571D01*
X203371428Y-143532142D01*
X203314285Y-143560714D01*
X203085714Y-143560714D01*
X203942857Y-143246428D02*
X203828571Y-143246428D01*
X203771428Y-143275000D01*
X203742857Y-143303571D01*
X203685714Y-143389285D01*
X203657142Y-143503571D01*
X203657142Y-143732142D01*
X203685714Y-143789285D01*
X203714285Y-143817857D01*
X203771428Y-143846428D01*
X203885714Y-143846428D01*
X203942857Y-143817857D01*
X203971428Y-143789285D01*
X204000000Y-143732142D01*
X204000000Y-143589285D01*
X203971428Y-143532142D01*
X203942857Y-143503571D01*
X203885714Y-143475000D01*
X203771428Y-143475000D01*
X203714285Y-143503571D01*
X203685714Y-143532142D01*
X203657142Y-143589285D01*
X210952857Y-125246428D02*
X211295714Y-125246428D01*
X211124285Y-125846428D02*
X211124285Y-125246428D01*
X211495714Y-125846428D02*
X211495714Y-125246428D01*
X211724285Y-125246428D01*
X211781428Y-125275000D01*
X211810000Y-125303571D01*
X211838571Y-125360714D01*
X211838571Y-125446428D01*
X211810000Y-125503571D01*
X211781428Y-125532142D01*
X211724285Y-125560714D01*
X211495714Y-125560714D01*
X212381428Y-125246428D02*
X212095714Y-125246428D01*
X212067142Y-125532142D01*
X212095714Y-125503571D01*
X212152857Y-125475000D01*
X212295714Y-125475000D01*
X212352857Y-125503571D01*
X212381428Y-125532142D01*
X212410000Y-125589285D01*
X212410000Y-125732142D01*
X212381428Y-125789285D01*
X212352857Y-125817857D01*
X212295714Y-125846428D01*
X212152857Y-125846428D01*
X212095714Y-125817857D01*
X212067142Y-125789285D01*
X191967857Y-110796428D02*
X192310714Y-110796428D01*
X192139285Y-111396428D02*
X192139285Y-110796428D01*
X192510714Y-111396428D02*
X192510714Y-110796428D01*
X192739285Y-110796428D01*
X192796428Y-110825000D01*
X192825000Y-110853571D01*
X192853571Y-110910714D01*
X192853571Y-110996428D01*
X192825000Y-111053571D01*
X192796428Y-111082142D01*
X192739285Y-111110714D01*
X192510714Y-111110714D01*
X193082142Y-110853571D02*
X193110714Y-110825000D01*
X193167857Y-110796428D01*
X193310714Y-110796428D01*
X193367857Y-110825000D01*
X193396428Y-110853571D01*
X193425000Y-110910714D01*
X193425000Y-110967857D01*
X193396428Y-111053571D01*
X193053571Y-111396428D01*
X193425000Y-111396428D01*
X199442857Y-119121428D02*
X199785714Y-119121428D01*
X199614285Y-119721428D02*
X199614285Y-119121428D01*
X199985714Y-119721428D02*
X199985714Y-119121428D01*
X200214285Y-119121428D01*
X200271428Y-119150000D01*
X200300000Y-119178571D01*
X200328571Y-119235714D01*
X200328571Y-119321428D01*
X200300000Y-119378571D01*
X200271428Y-119407142D01*
X200214285Y-119435714D01*
X199985714Y-119435714D01*
X200842857Y-119321428D02*
X200842857Y-119721428D01*
X200700000Y-119092857D02*
X200557142Y-119521428D01*
X200928571Y-119521428D01*
X193430607Y-114376928D02*
X193773464Y-114376928D01*
X193602035Y-114976928D02*
X193602035Y-114376928D01*
X193973464Y-114976928D02*
X193973464Y-114376928D01*
X194202035Y-114376928D01*
X194259178Y-114405500D01*
X194287750Y-114434071D01*
X194316321Y-114491214D01*
X194316321Y-114576928D01*
X194287750Y-114634071D01*
X194259178Y-114662642D01*
X194202035Y-114691214D01*
X193973464Y-114691214D01*
X194887750Y-114976928D02*
X194544892Y-114976928D01*
X194716321Y-114976928D02*
X194716321Y-114376928D01*
X194659178Y-114462642D01*
X194602035Y-114519785D01*
X194544892Y-114548357D01*
D11*
X196360000Y-109030000D02*
X196360000Y-111570000D01*
X191915000Y-111570000D02*
X191280000Y-110935000D01*
X191280000Y-109030000D02*
X196360000Y-109030000D01*
X196360000Y-111570000D02*
X191915000Y-111570000D01*
X191280000Y-110935000D02*
X191280000Y-109030000D01*
X200362500Y-116200000D02*
X200362500Y-114600000D01*
X201187500Y-114600000D02*
X201187500Y-116200000D01*
X201187500Y-116200000D02*
X200362500Y-116200000D01*
X200362500Y-114600000D02*
X201187500Y-114600000D01*
X174375000Y-128770000D02*
X174375000Y-128230000D01*
X175425000Y-128770000D02*
X174375000Y-128770000D01*
X175425000Y-128230000D02*
X175425000Y-128770000D01*
X174375000Y-128230000D02*
X175425000Y-128230000D01*
X185800000Y-121600000D02*
X184200000Y-121600000D01*
X184200000Y-118400000D02*
X185800000Y-118400000D01*
X184200000Y-121600000D02*
X184200000Y-118400000D01*
X185800000Y-118400000D02*
X185800000Y-121600000D01*
X174720000Y-120750000D02*
X174720000Y-121800000D01*
X174720000Y-121800000D02*
X174180000Y-121800000D01*
X174180000Y-121800000D02*
X174180000Y-120750000D01*
X174180000Y-120750000D02*
X174720000Y-120750000D01*
X191700000Y-120350000D02*
X191700000Y-117150000D01*
X193300000Y-120350000D02*
X191700000Y-120350000D01*
X193300000Y-117150000D02*
X193300000Y-120350000D01*
X191700000Y-117150000D02*
X193300000Y-117150000D01*
X177300000Y-128750000D02*
X176300000Y-128750000D01*
X176300000Y-128250000D02*
X177300000Y-128250000D01*
X176300000Y-128750000D02*
X176300000Y-128250000D01*
X177200000Y-128250000D02*
X177200000Y-128750000D01*
X177100000Y-128250000D02*
X177100000Y-128750000D01*
X177300000Y-128250000D02*
X177300000Y-128750000D01*
X193675000Y-144975000D02*
X194215000Y-144975000D01*
X194215000Y-146025000D02*
X193675000Y-146025000D01*
X194215000Y-144975000D02*
X194215000Y-146025000D01*
X193675000Y-146025000D02*
X193675000Y-144975000D01*
X202088000Y-129080000D02*
X209708000Y-129080000D01*
X202088000Y-130985000D02*
X202088000Y-129080000D01*
X209708000Y-129080000D02*
X209708000Y-131620000D01*
X202723000Y-131620000D02*
X202088000Y-130985000D01*
X209708000Y-131620000D02*
X202723000Y-131620000D01*
X190425000Y-115050000D02*
X190425000Y-109450000D01*
X189425000Y-116050000D02*
X190425000Y-115050000D01*
X184825000Y-116050000D02*
X189425000Y-116050000D01*
X185480000Y-115139838D02*
X186110000Y-115139838D01*
X183825000Y-109450000D02*
X190425000Y-109450000D01*
X183825000Y-115050000D02*
X183825000Y-109450000D01*
X184825000Y-116050000D02*
X183825000Y-115050000D01*
X185795000Y-115454838D02*
X185795000Y-114824838D01*
X190275000Y-112750000D02*
G75*
G03*
X190275000Y-112750000I-3150000J0D01*
G01*
X196355000Y-114100000D02*
X196895000Y-114100000D01*
X196895000Y-115150000D02*
X196355000Y-115150000D01*
X196355000Y-115150000D02*
X196355000Y-114100000D01*
X196895000Y-114100000D02*
X196895000Y-115150000D01*
X190532000Y-146025000D02*
X189992000Y-146025000D01*
X190532000Y-144975000D02*
X190532000Y-146025000D01*
X189992000Y-146025000D02*
X189992000Y-144975000D01*
X189992000Y-144975000D02*
X190532000Y-144975000D01*
X195215000Y-144000000D02*
X192675000Y-144000000D01*
X192675000Y-144000000D02*
X192675000Y-137015000D01*
X193310000Y-136380000D02*
X195215000Y-136380000D01*
X192675000Y-137015000D02*
X193310000Y-136380000D01*
X195215000Y-136380000D02*
X195215000Y-144000000D01*
X210675000Y-132945000D02*
X210675000Y-132405000D01*
X210675000Y-132405000D02*
X211725000Y-132405000D01*
X211725000Y-132945000D02*
X210675000Y-132945000D01*
X211725000Y-132405000D02*
X211725000Y-132945000D01*
X205300000Y-139300000D02*
G75*
G03*
X205300000Y-139300000I-500000J0D01*
G01*
X181325000Y-129950000D02*
X181325000Y-133150000D01*
X179725000Y-129950000D02*
X181325000Y-129950000D01*
X179725000Y-133150000D02*
X179725000Y-129950000D01*
X181325000Y-133150000D02*
X179725000Y-133150000D01*
X195359000Y-114125000D02*
X195859000Y-114125000D01*
X195359000Y-115125000D02*
X195359000Y-114125000D01*
X195859000Y-115125000D02*
X195359000Y-115125000D01*
X195859000Y-114125000D02*
X195859000Y-115125000D01*
X175505000Y-139836000D02*
X176045000Y-139836000D01*
X176045000Y-140886000D02*
X175505000Y-140886000D01*
X175505000Y-140886000D02*
X175505000Y-139836000D01*
X176045000Y-139836000D02*
X176045000Y-140886000D01*
X205587500Y-118900000D02*
X205587500Y-120500000D01*
X205587500Y-120500000D02*
X204762500Y-120500000D01*
X204762500Y-118900000D02*
X205587500Y-118900000D01*
X204762500Y-120500000D02*
X204762500Y-118900000D01*
X209708000Y-135270000D02*
X202723000Y-135270000D01*
X202088000Y-132730000D02*
X209708000Y-132730000D01*
X202088000Y-134635000D02*
X202088000Y-132730000D01*
X209708000Y-132730000D02*
X209708000Y-135270000D01*
X202723000Y-135270000D02*
X202088000Y-134635000D01*
X182265000Y-133150000D02*
X182265000Y-129950000D01*
X183865000Y-129950000D02*
X183865000Y-133150000D01*
X183865000Y-133150000D02*
X182265000Y-133150000D01*
X182265000Y-129950000D02*
X183865000Y-129950000D01*
X189106500Y-122606500D02*
X199393500Y-122606500D01*
X199393500Y-122606500D02*
X199393500Y-132893500D01*
X199393500Y-132893500D02*
X189106500Y-132893500D01*
X189106500Y-132893500D02*
X189106500Y-122606500D01*
X180585000Y-140886000D02*
X180585000Y-139836000D01*
X180585000Y-139836000D02*
X181125000Y-139836000D01*
X181125000Y-140886000D02*
X180585000Y-140886000D01*
X181125000Y-139836000D02*
X181125000Y-140886000D01*
X202088000Y-121780000D02*
X209708000Y-121780000D01*
X202723000Y-124320000D02*
X202088000Y-123685000D01*
X202088000Y-123685000D02*
X202088000Y-121780000D01*
X209708000Y-121780000D02*
X209708000Y-124320000D01*
X209708000Y-124320000D02*
X202723000Y-124320000D01*
X182265000Y-138650000D02*
X182265000Y-135450000D01*
X183865000Y-135450000D02*
X183865000Y-138650000D01*
X183865000Y-138650000D02*
X182265000Y-138650000D01*
X182265000Y-135450000D02*
X183865000Y-135450000D01*
X197898000Y-144975000D02*
X197898000Y-146025000D01*
X197358000Y-146025000D02*
X197358000Y-144975000D01*
X197898000Y-146025000D02*
X197358000Y-146025000D01*
X197358000Y-144975000D02*
X197898000Y-144975000D01*
X188300000Y-118400000D02*
X188300000Y-121600000D01*
X186700000Y-118400000D02*
X188300000Y-118400000D01*
X188300000Y-121600000D02*
X186700000Y-121600000D01*
X186700000Y-121600000D02*
X186700000Y-118400000D01*
X202581000Y-136380000D02*
X202581000Y-144000000D01*
X200041000Y-144000000D02*
X200041000Y-137015000D01*
X200676000Y-136380000D02*
X202581000Y-136380000D01*
X202581000Y-144000000D02*
X200041000Y-144000000D01*
X200041000Y-137015000D02*
X200676000Y-136380000D01*
X191887500Y-114450000D02*
X191062500Y-114450000D01*
X191062500Y-114450000D02*
X191062500Y-112850000D01*
X191887500Y-112850000D02*
X191887500Y-114450000D01*
X191062500Y-112850000D02*
X191887500Y-112850000D01*
X183665000Y-140886000D02*
X183125000Y-140886000D01*
X183665000Y-139836000D02*
X183665000Y-140886000D01*
X183125000Y-139836000D02*
X183665000Y-139836000D01*
X183125000Y-140886000D02*
X183125000Y-139836000D01*
X174275000Y-116100000D02*
X175875000Y-116100000D01*
X175875000Y-119300000D02*
X174275000Y-119300000D01*
X175875000Y-116100000D02*
X175875000Y-119300000D01*
X174275000Y-119300000D02*
X174275000Y-116100000D01*
X202723000Y-127970000D02*
X202088000Y-127335000D01*
X209708000Y-125430000D02*
X209708000Y-127970000D01*
X209708000Y-127970000D02*
X202723000Y-127970000D01*
X202088000Y-125430000D02*
X209708000Y-125430000D01*
X202088000Y-127335000D02*
X202088000Y-125430000D01*
X186405000Y-138650000D02*
X184805000Y-138650000D01*
X184805000Y-138650000D02*
X184805000Y-135450000D01*
X184805000Y-135450000D02*
X186405000Y-135450000D01*
X186405000Y-135450000D02*
X186405000Y-138650000D01*
X185990800Y-144720000D02*
X185990800Y-145720000D01*
X185990800Y-145720000D02*
X185490800Y-145720000D01*
X185490800Y-144720000D02*
X185990800Y-144720000D01*
X185490800Y-145720000D02*
X185490800Y-144720000D01*
X206505000Y-120035000D02*
X206505000Y-118130000D01*
X211585000Y-118130000D02*
X211585000Y-120670000D01*
X211585000Y-120670000D02*
X207140000Y-120670000D01*
X206505000Y-118130000D02*
X211585000Y-118130000D01*
X207140000Y-120670000D02*
X206505000Y-120035000D01*
X205300000Y-114700000D02*
G75*
G03*
X205300000Y-114700000I-500000J0D01*
G01*
X179725000Y-138650000D02*
X179725000Y-135450000D01*
X181325000Y-135450000D02*
X181325000Y-138650000D01*
X179725000Y-135450000D02*
X181325000Y-135450000D01*
X181325000Y-138650000D02*
X179725000Y-138650000D01*
X187247000Y-135906000D02*
X187247000Y-134306000D01*
X188047000Y-134306000D02*
X188047000Y-135906000D01*
X187247000Y-134306000D02*
X188047000Y-134306000D01*
X188047000Y-135906000D02*
X187247000Y-135906000D01*
D12*
X164662500Y-147250000D02*
X164662500Y-127250000D01*
X164662500Y-127250000D02*
X173662500Y-127250000D01*
X173662500Y-127250000D02*
X173662500Y-147250000D01*
X173662500Y-147250000D02*
X164662500Y-147250000D01*
D13*
X163762500Y-129750000D02*
G75*
G03*
X163762500Y-129750000I-100000J0D01*
G01*
D11*
X199362750Y-120187500D02*
X195362750Y-120187500D01*
X195362750Y-116187500D02*
X199362750Y-116187500D01*
X195362750Y-120187500D02*
X195362750Y-116187500D01*
X199362750Y-116187500D02*
X199362750Y-120187500D01*
D14*
X194672500Y-115387500D02*
G75*
G03*
X194672500Y-115387500I-110000J0D01*
G01*
D11*
X202325000Y-118075000D02*
X200725000Y-118075000D01*
X200725000Y-118075000D02*
X200725000Y-117275000D01*
X202325000Y-117275000D02*
X202325000Y-118075000D01*
X200725000Y-117275000D02*
X202325000Y-117275000D01*
X193937750Y-118687500D02*
X193937750Y-117687500D01*
X194437750Y-118687500D02*
X193937750Y-118687500D01*
X193937750Y-117687500D02*
X194437750Y-117687500D01*
X194437750Y-117687500D02*
X194437750Y-118687500D01*
X175700000Y-120775000D02*
X175700000Y-121775000D01*
X175200000Y-120975000D02*
X175700000Y-120975000D01*
X175700000Y-121775000D02*
X175200000Y-121775000D01*
X175200000Y-121775000D02*
X175200000Y-120775000D01*
X175200000Y-120775000D02*
X175700000Y-120775000D01*
X175200000Y-120875000D02*
X175700000Y-120875000D01*
X179175000Y-129050000D02*
G75*
G03*
X179175000Y-129050000I-500000J0D01*
G01*
X211725000Y-125105000D02*
X211725000Y-125645000D01*
X211725000Y-125645000D02*
X210675000Y-125645000D01*
X210675000Y-125645000D02*
X210675000Y-125105000D01*
X210675000Y-125105000D02*
X211725000Y-125105000D01*
X174515000Y-141890000D02*
X184675000Y-141890000D01*
X174515000Y-145700000D02*
X174515000Y-141890000D01*
X184675000Y-146970000D02*
X175785000Y-146970000D01*
X175785000Y-146970000D02*
X174515000Y-145700000D01*
X184675000Y-141890000D02*
X184675000Y-146970000D01*
X178045000Y-139836000D02*
X178585000Y-139836000D01*
X178585000Y-140886000D02*
X178045000Y-140886000D01*
X178585000Y-139836000D02*
X178585000Y-140886000D01*
X178045000Y-140886000D02*
X178045000Y-139836000D01*
D12*
X173662500Y-107100000D02*
X173662500Y-127100000D01*
X164662500Y-127100000D02*
X164662500Y-107100000D01*
X164662500Y-107100000D02*
X173662500Y-107100000D01*
X173662500Y-127100000D02*
X164662500Y-127100000D01*
D13*
X163762500Y-109600000D02*
G75*
G03*
X163762500Y-109600000I-100000J0D01*
G01*
D11*
X196358000Y-144000000D02*
X196358000Y-137015000D01*
X196993000Y-136380000D02*
X198898000Y-136380000D01*
X196358000Y-137015000D02*
X196993000Y-136380000D01*
X198898000Y-144000000D02*
X196358000Y-144000000D01*
X198898000Y-136380000D02*
X198898000Y-144000000D01*
X189200000Y-120350000D02*
X189200000Y-117150000D01*
X189200000Y-117150000D02*
X190800000Y-117150000D01*
X190800000Y-117150000D02*
X190800000Y-120350000D01*
X190800000Y-120350000D02*
X189200000Y-120350000D01*
X177050000Y-119600000D02*
X177050000Y-118000000D01*
X180250000Y-118000000D02*
X180250000Y-119600000D01*
X180250000Y-119600000D02*
X177050000Y-119600000D01*
X177050000Y-118000000D02*
X180250000Y-118000000D01*
X176650000Y-115050000D02*
X176650000Y-109450000D01*
X177650000Y-116050000D02*
X182250000Y-116050000D01*
X182250000Y-116050000D02*
X183250000Y-115050000D01*
X183250000Y-115050000D02*
X183250000Y-109450000D01*
X176650000Y-109450000D02*
X183250000Y-109450000D01*
X177650000Y-116050000D02*
X176650000Y-115050000D01*
X178620000Y-115454838D02*
X178620000Y-114824838D01*
X178305000Y-115139838D02*
X178935000Y-115139838D01*
X183100000Y-112750000D02*
G75*
G03*
X183100000Y-112750000I-3150000J0D01*
G01*
X181700000Y-121600000D02*
X181700000Y-118400000D01*
X183300000Y-118400000D02*
X183300000Y-121600000D01*
X183300000Y-121600000D02*
X181700000Y-121600000D01*
X181700000Y-118400000D02*
X183300000Y-118400000D01*
X210675000Y-121995000D02*
X210675000Y-121455000D01*
X211725000Y-121995000D02*
X210675000Y-121995000D01*
X211725000Y-121455000D02*
X211725000Y-121995000D01*
X210675000Y-121455000D02*
X211725000Y-121455000D01*
X188992000Y-137015000D02*
X189627000Y-136380000D01*
X191532000Y-144000000D02*
X188992000Y-144000000D01*
X191532000Y-136380000D02*
X191532000Y-144000000D01*
X189627000Y-136380000D02*
X191532000Y-136380000D01*
X188992000Y-144000000D02*
X188992000Y-137015000D01*
X201041000Y-144975000D02*
X201581000Y-144975000D01*
X201041000Y-146025000D02*
X201041000Y-144975000D01*
X201581000Y-146025000D02*
X201041000Y-146025000D01*
X201581000Y-144975000D02*
X201581000Y-146025000D01*
X184805000Y-133150000D02*
X184805000Y-129950000D01*
X186405000Y-133150000D02*
X184805000Y-133150000D01*
X184805000Y-129950000D02*
X186405000Y-129950000D01*
X186405000Y-129950000D02*
X186405000Y-133150000D01*
X211725000Y-129295000D02*
X210675000Y-129295000D01*
X211725000Y-128755000D02*
X211725000Y-129295000D01*
X210675000Y-129295000D02*
X210675000Y-128755000D01*
X210675000Y-128755000D02*
X211725000Y-128755000D01*
X200880750Y-119850000D02*
X200880750Y-119050000D01*
X202480750Y-119050000D02*
X202480750Y-119850000D01*
X202480750Y-119850000D02*
X200880750Y-119850000D01*
X200880750Y-119050000D02*
X202480750Y-119050000D01*
M02*
