%TF.GenerationSoftware,KiCad,Pcbnew,6.0.1-79c1e3a40b~116~ubuntu20.04.1*%
%TF.CreationDate,2022-01-22T21:44:10+01:00*%
%TF.ProjectId,Step_Down_Converter,53746570-5f44-46f7-976e-5f436f6e7665,rev?*%
%TF.SameCoordinates,Original*%
%TF.FileFunction,Soldermask,Top*%
%TF.FilePolarity,Negative*%
%FSLAX46Y46*%
G04 Gerber Fmt 4.6, Leading zero omitted, Abs format (unit mm)*
G04 Created by KiCad (PCBNEW 6.0.1-79c1e3a40b~116~ubuntu20.04.1) date 2022-01-22 21:44:10*
%MOMM*%
%LPD*%
G01*
G04 APERTURE LIST*
G04 Aperture macros list*
%AMRoundRect*
0 Rectangle with rounded corners*
0 $1 Rounding radius*
0 $2 $3 $4 $5 $6 $7 $8 $9 X,Y pos of 4 corners*
0 Add a 4 corners polygon primitive as box body*
4,1,4,$2,$3,$4,$5,$6,$7,$8,$9,$2,$3,0*
0 Add four circle primitives for the rounded corners*
1,1,$1+$1,$2,$3*
1,1,$1+$1,$4,$5*
1,1,$1+$1,$6,$7*
1,1,$1+$1,$8,$9*
0 Add four rect primitives between the rounded corners*
20,1,$1+$1,$2,$3,$4,$5,0*
20,1,$1+$1,$4,$5,$6,$7,0*
20,1,$1+$1,$6,$7,$8,$9,0*
20,1,$1+$1,$8,$9,$2,$3,0*%
%AMFreePoly0*
4,1,16,2.200035,0.362535,2.200050,0.362500,2.200050,0.087500,2.200035,0.087465,2.200000,0.087450,0.150000,0.087450,0.150000,-0.362500,-0.150000,-0.362500,-0.150000,0.087450,-0.150035,0.087465,-0.150050,0.087500,-0.150050,0.362500,-0.150035,0.362535,-0.150000,0.362550,2.200000,0.362550,2.200035,0.362535,2.200035,0.362535,$1*%
%AMFreePoly1*
4,1,13,0.500035,0.950035,0.500050,0.950000,0.500050,-0.625000,0.500035,-0.625035,0.500000,-0.625050,-0.550000,-0.625050,-0.550035,-0.625035,-0.550050,-0.625000,-0.550050,0.950000,-0.550035,0.950035,-0.550000,0.950050,0.500000,0.950050,0.500035,0.950035,0.500035,0.950035,$1*%
%AMFreePoly2*
4,1,13,0.500035,0.600035,0.500050,0.600000,0.500050,-0.550000,0.500035,-0.550035,0.500000,-0.550050,-0.550000,-0.550050,-0.550035,-0.550035,-0.550050,-0.550000,-0.550050,0.600000,-0.550035,0.600035,-0.550000,0.600050,0.500000,0.600050,0.500035,0.600035,0.500035,0.600035,$1*%
%AMFreePoly3*
4,1,17,0.550035,1.200035,0.550050,1.200000,0.550050,-1.625000,0.550035,-1.625035,0.550000,-1.625050,0.095000,-1.625050,0.094965,-1.625035,0.094950,-1.625000,0.094950,-0.975050,-0.650000,-0.975050,-0.650035,-0.975035,-0.650050,-0.975000,-0.650050,1.200000,-0.650035,1.200035,-0.650000,1.200050,0.550000,1.200050,0.550035,1.200035,0.550035,1.200035,$1*%
G04 Aperture macros list end*
%ADD10C,0.010000*%
%ADD11C,0.000100*%
%ADD12R,1.700000X1.700000*%
%ADD13O,1.700000X1.700000*%
%ADD14RoundRect,0.200000X0.275000X-0.200000X0.275000X0.200000X-0.275000X0.200000X-0.275000X-0.200000X0*%
%ADD15RoundRect,0.135000X-0.135000X-0.185000X0.135000X-0.185000X0.135000X0.185000X-0.135000X0.185000X0*%
%ADD16RoundRect,0.250000X-0.650000X0.325000X-0.650000X-0.325000X0.650000X-0.325000X0.650000X0.325000X0*%
%ADD17RoundRect,0.135000X-0.185000X0.135000X-0.185000X-0.135000X0.185000X-0.135000X0.185000X0.135000X0*%
%ADD18C,6.400000*%
%ADD19RoundRect,0.147500X0.147500X0.172500X-0.147500X0.172500X-0.147500X-0.172500X0.147500X-0.172500X0*%
%ADD20RoundRect,0.135000X0.185000X-0.135000X0.185000X0.135000X-0.185000X0.135000X-0.185000X-0.135000X0*%
%ADD21C,0.500000*%
%ADD22RoundRect,0.250000X0.550000X-1.500000X0.550000X1.500000X-0.550000X1.500000X-0.550000X-1.500000X0*%
%ADD23RoundRect,0.135000X0.135000X0.185000X-0.135000X0.185000X-0.135000X-0.185000X0.135000X-0.185000X0*%
%ADD24C,1.000000*%
%ADD25RoundRect,0.250000X0.650000X-0.325000X0.650000X0.325000X-0.650000X0.325000X-0.650000X-0.325000X0*%
%ADD26RoundRect,0.140000X0.170000X-0.140000X0.170000X0.140000X-0.170000X0.140000X-0.170000X-0.140000X0*%
%ADD27R,3.251000X3.124000*%
%ADD28RoundRect,0.140000X-0.170000X0.140000X-0.170000X-0.140000X0.170000X-0.140000X0.170000X0.140000X0*%
%ADD29RoundRect,0.225000X-0.250000X0.225000X-0.250000X-0.225000X0.250000X-0.225000X0.250000X0.225000X0*%
%ADD30R,1.950000X1.950000*%
%ADD31C,1.950000*%
%ADD32R,0.550000X0.300000*%
%ADD33FreePoly0,0.000000*%
%ADD34R,0.300000X0.725000*%
%ADD35R,0.300000X0.730000*%
%ADD36R,0.725000X0.300000*%
%ADD37FreePoly1,90.000000*%
%ADD38FreePoly2,90.000000*%
%ADD39FreePoly3,90.000000*%
%ADD40R,0.580000X0.380000*%
%ADD41RoundRect,0.225000X-0.225000X-0.250000X0.225000X-0.250000X0.225000X0.250000X-0.225000X0.250000X0*%
%ADD42RoundRect,0.147500X-0.172500X0.147500X-0.172500X-0.147500X0.172500X-0.147500X0.172500X0.147500X0*%
%ADD43RoundRect,0.250000X-0.275000X-0.700000X0.275000X-0.700000X0.275000X0.700000X-0.275000X0.700000X0*%
%ADD44C,0.400000*%
%ADD45C,0.800000*%
G04 APERTURE END LIST*
D10*
X199400000Y-106100000D02*
X205400000Y-106100000D01*
X205400000Y-106100000D02*
X205400000Y-108500000D01*
X205400000Y-108500000D02*
X199400000Y-108500000D01*
X199400000Y-108500000D02*
X199400000Y-106100000D01*
D11*
X198237500Y-120035000D02*
X195887500Y-120035000D01*
X195887500Y-120035000D02*
X195887500Y-119760000D01*
X195887500Y-119760000D02*
X198237500Y-119760000D01*
X198237500Y-119760000D02*
X198237500Y-120035000D01*
G36*
X198237500Y-120035000D02*
G01*
X195887500Y-120035000D01*
X195887500Y-119760000D01*
X198237500Y-119760000D01*
X198237500Y-120035000D01*
G37*
X198237500Y-120035000D02*
X195887500Y-120035000D01*
X195887500Y-119760000D01*
X198237500Y-119760000D01*
X198237500Y-120035000D01*
X198437500Y-118715000D02*
X197787500Y-118715000D01*
X197787500Y-118715000D02*
X197787500Y-119460000D01*
X197787500Y-119460000D02*
X195612500Y-119460000D01*
X195612500Y-119460000D02*
X195612500Y-118260000D01*
X195612500Y-118260000D02*
X198437500Y-118260000D01*
X198437500Y-118260000D02*
X198437500Y-118715000D01*
G36*
X198437500Y-118715000D02*
G01*
X197787500Y-118715000D01*
X197787500Y-119460000D01*
X195612500Y-119460000D01*
X195612500Y-118260000D01*
X198437500Y-118260000D01*
X198437500Y-118715000D01*
G37*
X198437500Y-118715000D02*
X197787500Y-118715000D01*
X197787500Y-119460000D01*
X195612500Y-119460000D01*
X195612500Y-118260000D01*
X198437500Y-118260000D01*
X198437500Y-118715000D01*
D12*
X192550000Y-110300000D03*
D13*
X195090000Y-110300000D03*
D14*
X200775000Y-116225000D03*
X200775000Y-114575000D03*
D15*
X174390000Y-128500000D03*
X175410000Y-128500000D03*
D16*
X185000000Y-118525000D03*
X185000000Y-121475000D03*
D17*
X174450000Y-120765000D03*
X174450000Y-121785000D03*
D16*
X192500000Y-117275000D03*
X192500000Y-120225000D03*
D18*
X208100000Y-111400000D03*
D19*
X177285000Y-128500000D03*
X176315000Y-128500000D03*
D20*
X193945000Y-146010000D03*
X193945000Y-144990000D03*
D21*
X176750000Y-135150000D03*
D12*
X203358000Y-130350000D03*
D13*
X205898000Y-130350000D03*
X208438000Y-130350000D03*
D22*
X187125000Y-115450000D03*
X187125000Y-110050000D03*
D20*
X196625000Y-115135000D03*
X196625000Y-114115000D03*
X190262000Y-146010000D03*
X190262000Y-144990000D03*
D12*
X193945000Y-137650000D03*
D13*
X193945000Y-140190000D03*
X193945000Y-142730000D03*
D23*
X211710000Y-132675000D03*
X210690000Y-132675000D03*
D24*
X204800000Y-139300000D03*
D25*
X180525000Y-133025000D03*
X180525000Y-130075000D03*
D26*
X195609000Y-115105000D03*
X195609000Y-114145000D03*
D17*
X175775000Y-139851000D03*
X175775000Y-140871000D03*
D14*
X205175000Y-120525000D03*
X205175000Y-118875000D03*
D12*
X203358000Y-134000000D03*
D13*
X205898000Y-134000000D03*
X208438000Y-134000000D03*
D25*
X183065000Y-133025000D03*
X183065000Y-130075000D03*
D27*
X194250000Y-123279500D03*
X194250000Y-132220500D03*
D17*
X180855000Y-139851000D03*
X180855000Y-140871000D03*
D12*
X203358000Y-123050000D03*
D13*
X205898000Y-123050000D03*
X208438000Y-123050000D03*
D16*
X183065000Y-135575000D03*
X183065000Y-138525000D03*
D20*
X197628000Y-146010000D03*
X197628000Y-144990000D03*
D16*
X187500000Y-118525000D03*
X187500000Y-121475000D03*
D12*
X201311000Y-137650000D03*
D13*
X201311000Y-140190000D03*
X201311000Y-142730000D03*
D14*
X191475000Y-114475000D03*
X191475000Y-112825000D03*
D17*
X183395000Y-139851000D03*
X183395000Y-140871000D03*
D25*
X175075000Y-119175000D03*
X175075000Y-116225000D03*
D21*
X204500000Y-117700000D03*
D12*
X203358000Y-126700000D03*
D13*
X205898000Y-126700000D03*
X208438000Y-126700000D03*
D16*
X185605000Y-135575000D03*
X185605000Y-138525000D03*
D28*
X185740800Y-144740000D03*
X185740800Y-145700000D03*
D12*
X207775000Y-119400000D03*
D13*
X210315000Y-119400000D03*
D21*
X187315600Y-145700000D03*
D24*
X204800000Y-114700000D03*
D16*
X180525000Y-135575000D03*
X180525000Y-138525000D03*
D29*
X187647000Y-134331000D03*
X187647000Y-135881000D03*
D30*
X168662500Y-129750000D03*
D31*
X168662500Y-134750000D03*
X168662500Y-139750000D03*
X168662500Y-144750000D03*
D32*
X195337500Y-117360000D03*
X195337500Y-117810000D03*
X195337500Y-118710000D03*
X195337500Y-119160000D03*
D33*
X196037500Y-120122500D03*
D34*
X196487500Y-120122500D03*
X196937500Y-120122500D03*
X197637500Y-120122500D03*
X198087500Y-120122500D03*
D35*
X198537500Y-120122500D03*
D36*
X199300500Y-119612500D03*
X199300500Y-119162500D03*
X199300500Y-118712500D03*
X199300500Y-118262500D03*
X199300500Y-117812500D03*
X199300500Y-117362500D03*
X199300500Y-116912500D03*
D34*
X198837500Y-116250000D03*
X198387500Y-116250000D03*
X197937500Y-116250000D03*
X197487500Y-116250000D03*
X196787500Y-116250000D03*
X196337500Y-116250000D03*
X195887500Y-116250000D03*
D37*
X198012500Y-117410000D03*
D38*
X196212500Y-117410000D03*
D39*
X196812500Y-118810000D03*
D40*
X198347500Y-119177500D03*
D41*
X200750000Y-117675000D03*
X202300000Y-117675000D03*
D18*
X178600000Y-124500000D03*
D21*
X203300000Y-145025000D03*
D28*
X194187750Y-117707500D03*
X194187750Y-118667500D03*
D21*
X211710000Y-127025000D03*
D42*
X175450000Y-120790000D03*
X175450000Y-121760000D03*
D24*
X178675000Y-129050000D03*
D23*
X211710000Y-125375000D03*
X210690000Y-125375000D03*
D12*
X175785000Y-145700000D03*
D13*
X175785000Y-143160000D03*
X178325000Y-145700000D03*
X178325000Y-143160000D03*
X180865000Y-145700000D03*
X180865000Y-143160000D03*
X183405000Y-145700000D03*
X183405000Y-143160000D03*
D17*
X178315000Y-139851000D03*
X178315000Y-140871000D03*
D30*
X168662500Y-109600000D03*
D31*
X168662500Y-114600000D03*
X168662500Y-119600000D03*
X168662500Y-124600000D03*
D21*
X192725000Y-112575000D03*
D12*
X197628000Y-137650000D03*
D13*
X197628000Y-140190000D03*
X197628000Y-142730000D03*
D16*
X190000000Y-117275000D03*
X190000000Y-120225000D03*
D43*
X177075000Y-118800000D03*
X180225000Y-118800000D03*
D21*
X200200000Y-120900000D03*
D22*
X179950000Y-115450000D03*
X179950000Y-110050000D03*
D16*
X182500000Y-118525000D03*
X182500000Y-121475000D03*
D23*
X211710000Y-121725000D03*
X210690000Y-121725000D03*
D12*
X190262000Y-137650000D03*
D13*
X190262000Y-140190000D03*
X190262000Y-142730000D03*
D20*
X201311000Y-146010000D03*
X201311000Y-144990000D03*
D21*
X194187750Y-116155500D03*
D25*
X185605000Y-133025000D03*
X185605000Y-130075000D03*
D23*
X211710000Y-129025000D03*
X210690000Y-129025000D03*
D18*
X208100000Y-142650000D03*
D41*
X200905750Y-119450000D03*
X202455750Y-119450000D03*
D44*
X165000000Y-124150000D03*
X183000000Y-106900000D03*
X196950000Y-119200000D03*
X178100000Y-128200000D03*
X165000000Y-109400000D03*
X172500000Y-144900000D03*
X199100000Y-121700000D03*
X184000000Y-147400000D03*
D45*
X188500000Y-124500000D03*
D44*
X193000000Y-145200000D03*
X213000000Y-122400000D03*
X178200000Y-129800000D03*
X197400000Y-114000000D03*
X196000000Y-138400000D03*
X204500000Y-109400000D03*
D45*
X192000000Y-129000000D03*
D44*
X213000000Y-126900000D03*
X180800000Y-128800000D03*
X203382550Y-119500000D03*
X175800000Y-127200000D03*
D45*
X190000000Y-129000000D03*
D44*
X193000000Y-147450000D03*
X206000000Y-106800000D03*
X203500000Y-136400000D03*
X196000000Y-136000000D03*
X199825000Y-114575000D03*
X212600000Y-113400000D03*
X187500000Y-106900000D03*
X210800000Y-130800000D03*
D45*
X196000000Y-129000000D03*
D44*
X188000000Y-129800000D03*
X176500000Y-137400000D03*
X186800000Y-128800000D03*
D45*
X185500000Y-124500000D03*
D44*
X192400000Y-113300000D03*
X204500000Y-112400000D03*
X177000000Y-140900000D03*
D45*
X182500000Y-126000000D03*
D44*
X166500000Y-107400000D03*
X210500000Y-106900000D03*
X192000000Y-106900000D03*
D45*
X194000000Y-129000000D03*
D44*
X175000000Y-147400000D03*
X198000000Y-118500000D03*
X183000000Y-109400000D03*
X211000000Y-133800000D03*
X169500000Y-112400000D03*
D45*
X187000000Y-123000000D03*
D44*
X173000000Y-124150000D03*
X199000000Y-106900000D03*
X183000000Y-112400000D03*
X206400000Y-120000000D03*
X169500000Y-106900000D03*
X204500000Y-121400000D03*
X165000000Y-112400000D03*
X178400000Y-120800000D03*
X197500000Y-147450000D03*
X187500000Y-144900000D03*
D45*
X185500000Y-123000000D03*
D44*
X199000000Y-112400000D03*
X202700000Y-121700000D03*
D45*
X198000000Y-129000000D03*
D44*
X165000000Y-126600000D03*
X208200000Y-137200000D03*
X204200000Y-141800000D03*
D45*
X187000000Y-124500000D03*
D44*
X169000000Y-126600000D03*
X200200000Y-145200000D03*
X213000000Y-135900000D03*
D45*
X190000000Y-127000000D03*
D44*
X194800000Y-145200000D03*
X169000000Y-121900000D03*
X169000000Y-137400000D03*
X202300000Y-116800000D03*
X188500000Y-147450000D03*
D45*
X182500000Y-123000000D03*
X184000000Y-124500000D03*
D44*
X211000000Y-127000000D03*
D45*
X198000000Y-127000000D03*
D44*
X202000000Y-147450000D03*
X183200000Y-128400000D03*
X187500000Y-112400000D03*
X184800000Y-144400000D03*
D45*
X196000000Y-127000000D03*
D44*
X182000000Y-140900000D03*
X202500000Y-124800000D03*
X196950000Y-118500000D03*
D45*
X184000000Y-127500000D03*
D44*
X213000000Y-140400000D03*
X202500000Y-132200000D03*
X165000000Y-121900000D03*
X199521750Y-116155500D03*
X199500000Y-138400000D03*
D45*
X187000000Y-126000000D03*
D44*
X199500000Y-136000000D03*
X213000000Y-117900000D03*
X199000000Y-145200000D03*
X211200000Y-120900000D03*
D45*
X188500000Y-123000000D03*
D44*
X165000000Y-137400000D03*
X204400000Y-119600000D03*
X174000000Y-109400000D03*
D45*
X184000000Y-126000000D03*
X182500000Y-127500000D03*
D44*
X196000000Y-118500000D03*
X213000000Y-144900000D03*
X210500000Y-116900000D03*
D45*
X185500000Y-127500000D03*
D44*
X166000000Y-147400000D03*
X189500000Y-145600000D03*
X199000000Y-109400000D03*
X174000000Y-106900000D03*
D45*
X187000000Y-127500000D03*
D44*
X187500000Y-142400000D03*
X173000000Y-121900000D03*
X187500000Y-138400000D03*
X174000000Y-112400000D03*
X196500000Y-109400000D03*
X191200000Y-145200000D03*
X182000000Y-144400000D03*
X198000000Y-117400000D03*
D45*
X182500000Y-124500000D03*
D44*
X204000000Y-114400000D03*
X205500000Y-124600000D03*
X170500000Y-147400000D03*
X202000000Y-114400000D03*
D45*
X185500000Y-126000000D03*
D44*
X204400000Y-138400000D03*
X175000000Y-137400000D03*
X169000000Y-141900000D03*
X206500000Y-147450000D03*
X201300000Y-120300000D03*
X202200000Y-145200000D03*
X196500000Y-112400000D03*
X213000000Y-131400000D03*
X178500000Y-112400000D03*
X178000000Y-117000000D03*
X211000000Y-147450000D03*
D45*
X184000000Y-123000000D03*
X192000000Y-127000000D03*
D44*
X196000000Y-119200000D03*
X207000000Y-116900000D03*
D45*
X188500000Y-127500000D03*
D44*
X205500000Y-132000000D03*
X175000000Y-141900000D03*
X184600000Y-140900000D03*
D45*
X188500000Y-126000000D03*
D44*
X173000000Y-126600000D03*
X202000000Y-109400000D03*
X179600000Y-140900000D03*
X201600000Y-116800000D03*
X165000000Y-146400000D03*
X191500000Y-111650000D03*
X202600000Y-135400000D03*
X196500000Y-106900000D03*
X192000000Y-135900000D03*
X177000000Y-144400000D03*
X202500000Y-128400000D03*
X202000000Y-112400000D03*
X172500000Y-139900000D03*
X205500000Y-128200000D03*
D45*
X194000000Y-127000000D03*
X181000000Y-127500000D03*
D44*
X196800000Y-145200000D03*
X188600000Y-135900000D03*
X178500000Y-109400000D03*
X210800000Y-123200000D03*
X194800000Y-114400000D03*
X192000000Y-138400000D03*
X178500000Y-106900000D03*
X174400000Y-117000000D03*
X165000000Y-141900000D03*
X179500000Y-147400000D03*
X212500000Y-108900000D03*
X179585000Y-144425000D03*
X199050000Y-114950000D03*
D45*
X192000000Y-115500000D03*
X189600000Y-114500000D03*
X191200000Y-118300000D03*
X193500000Y-115500000D03*
X182050000Y-115450000D03*
X183800000Y-119500000D03*
X182000000Y-114000000D03*
X192600000Y-114500000D03*
X183500000Y-114000000D03*
X194800000Y-115700000D03*
X185050000Y-115450000D03*
X183550000Y-115450000D03*
X190500000Y-115500000D03*
X183500000Y-117000000D03*
X185000000Y-117000000D03*
X182000000Y-117000000D03*
X185000000Y-114000000D03*
D44*
X196150000Y-117450000D03*
D45*
X186200000Y-119500000D03*
X189000000Y-115500000D03*
D44*
X200100000Y-118325000D03*
X204499511Y-118325000D03*
X188000000Y-145875000D03*
X201950000Y-115700000D03*
D45*
X165000000Y-130500000D03*
X192000000Y-131500000D03*
X171000000Y-132000000D03*
X192000000Y-134000000D03*
X165000000Y-133500000D03*
X171000000Y-136000000D03*
X198500000Y-134000000D03*
X175500000Y-134000000D03*
X169500000Y-132000000D03*
X196500000Y-131500000D03*
X175500000Y-136000000D03*
X172500000Y-134000000D03*
X178500000Y-136000000D03*
X196500000Y-134000000D03*
X166500000Y-132000000D03*
X165000000Y-129000000D03*
X175500000Y-132000000D03*
X165000000Y-135000000D03*
X198500000Y-131500000D03*
X177000000Y-134000000D03*
X166500000Y-136500000D03*
X188000000Y-132600000D03*
X166500000Y-130500000D03*
X172500000Y-136000000D03*
X168000000Y-136500000D03*
X177000000Y-132000000D03*
X171000000Y-134000000D03*
X174000000Y-130500000D03*
X166500000Y-129000000D03*
X172500000Y-128500000D03*
X171000000Y-128500000D03*
X175500000Y-130500000D03*
X172500000Y-130500000D03*
X172600000Y-131900000D03*
X165000000Y-136500000D03*
X177000000Y-136000000D03*
X174000000Y-132000000D03*
X174000000Y-134000000D03*
X178500000Y-132000000D03*
D44*
X199050000Y-115575000D03*
X175775000Y-139175000D03*
D45*
X178500000Y-134000000D03*
X166500000Y-135000000D03*
X171000000Y-130500000D03*
X165000000Y-132000000D03*
X190000000Y-134000000D03*
X174000000Y-136000000D03*
X169500000Y-136500000D03*
X168000000Y-132000000D03*
X166500000Y-133500000D03*
X190000000Y-131500000D03*
X171000000Y-117000000D03*
X171000000Y-120000000D03*
X173000000Y-120000000D03*
X171000000Y-118500000D03*
X165000000Y-115500000D03*
X165000000Y-118500000D03*
X173000000Y-117000000D03*
X165000000Y-117000000D03*
X169000000Y-117000000D03*
X167000000Y-114000000D03*
X165000000Y-120000000D03*
X173000000Y-114000000D03*
X171000000Y-114000000D03*
X167000000Y-118500000D03*
X167000000Y-117000000D03*
X167000000Y-120000000D03*
X165000000Y-114000000D03*
X173000000Y-118500000D03*
X173000000Y-115500000D03*
X167000000Y-115500000D03*
X171000000Y-115500000D03*
G36*
X205342121Y-106170002D02*
G01*
X205388614Y-106223658D01*
X205400000Y-106276000D01*
X205400000Y-108374000D01*
X205379998Y-108442121D01*
X205326342Y-108488614D01*
X205274000Y-108500000D01*
X199526000Y-108500000D01*
X199457879Y-108479998D01*
X199411386Y-108426342D01*
X199400000Y-108374000D01*
X199400000Y-106276000D01*
X199420002Y-106207879D01*
X199473658Y-106161386D01*
X199526000Y-106150000D01*
X205274000Y-106150000D01*
X205342121Y-106170002D01*
G37*
M02*
