%TF.GenerationSoftware,KiCad,Pcbnew,6.0.1-79c1e3a40b~116~ubuntu20.04.1*%
%TF.CreationDate,2022-01-22T21:44:09+01:00*%
%TF.ProjectId,Step_Down_Converter,53746570-5f44-46f7-976e-5f436f6e7665,rev?*%
%TF.SameCoordinates,Original*%
%TF.FileFunction,Legend,Top*%
%TF.FilePolarity,Positive*%
%FSLAX46Y46*%
G04 Gerber Fmt 4.6, Leading zero omitted, Abs format (unit mm)*
G04 Created by KiCad (PCBNEW 6.0.1-79c1e3a40b~116~ubuntu20.04.1) date 2022-01-22 21:44:09*
%MOMM*%
%LPD*%
G01*
G04 APERTURE LIST*
G04 Aperture macros list*
%AMRoundRect*
0 Rectangle with rounded corners*
0 $1 Rounding radius*
0 $2 $3 $4 $5 $6 $7 $8 $9 X,Y pos of 4 corners*
0 Add a 4 corners polygon primitive as box body*
4,1,4,$2,$3,$4,$5,$6,$7,$8,$9,$2,$3,0*
0 Add four circle primitives for the rounded corners*
1,1,$1+$1,$2,$3*
1,1,$1+$1,$4,$5*
1,1,$1+$1,$6,$7*
1,1,$1+$1,$8,$9*
0 Add four rect primitives between the rounded corners*
20,1,$1+$1,$2,$3,$4,$5,0*
20,1,$1+$1,$4,$5,$6,$7,0*
20,1,$1+$1,$6,$7,$8,$9,0*
20,1,$1+$1,$8,$9,$2,$3,0*%
%AMFreePoly0*
4,1,16,2.200035,0.362535,2.200050,0.362500,2.200050,0.087500,2.200035,0.087465,2.200000,0.087450,0.150000,0.087450,0.150000,-0.362500,-0.150000,-0.362500,-0.150000,0.087450,-0.150035,0.087465,-0.150050,0.087500,-0.150050,0.362500,-0.150035,0.362535,-0.150000,0.362550,2.200000,0.362550,2.200035,0.362535,2.200035,0.362535,$1*%
%AMFreePoly1*
4,1,13,0.500035,0.950035,0.500050,0.950000,0.500050,-0.625000,0.500035,-0.625035,0.500000,-0.625050,-0.550000,-0.625050,-0.550035,-0.625035,-0.550050,-0.625000,-0.550050,0.950000,-0.550035,0.950035,-0.550000,0.950050,0.500000,0.950050,0.500035,0.950035,0.500035,0.950035,$1*%
%AMFreePoly2*
4,1,13,0.500035,0.600035,0.500050,0.600000,0.500050,-0.550000,0.500035,-0.550035,0.500000,-0.550050,-0.550000,-0.550050,-0.550035,-0.550035,-0.550050,-0.550000,-0.550050,0.600000,-0.550035,0.600035,-0.550000,0.600050,0.500000,0.600050,0.500035,0.600035,0.500035,0.600035,$1*%
%AMFreePoly3*
4,1,17,0.550035,1.200035,0.550050,1.200000,0.550050,-1.625000,0.550035,-1.625035,0.550000,-1.625050,0.095000,-1.625050,0.094965,-1.625035,0.094950,-1.625000,0.094950,-0.975050,-0.650000,-0.975050,-0.650035,-0.975035,-0.650050,-0.975000,-0.650050,1.200000,-0.650035,1.200035,-0.650000,1.200050,0.550000,1.200050,0.550035,1.200035,0.550035,1.200035,$1*%
G04 Aperture macros list end*
%ADD10C,0.070000*%
%ADD11C,0.120000*%
%ADD12C,0.100000*%
%ADD13C,0.050000*%
%ADD14C,0.127000*%
%ADD15C,0.200000*%
%ADD16C,0.010000*%
%ADD17C,0.000100*%
%ADD18R,1.700000X1.700000*%
%ADD19O,1.700000X1.700000*%
%ADD20RoundRect,0.200000X0.275000X-0.200000X0.275000X0.200000X-0.275000X0.200000X-0.275000X-0.200000X0*%
%ADD21RoundRect,0.135000X-0.135000X-0.185000X0.135000X-0.185000X0.135000X0.185000X-0.135000X0.185000X0*%
%ADD22RoundRect,0.250000X-0.650000X0.325000X-0.650000X-0.325000X0.650000X-0.325000X0.650000X0.325000X0*%
%ADD23RoundRect,0.135000X-0.185000X0.135000X-0.185000X-0.135000X0.185000X-0.135000X0.185000X0.135000X0*%
%ADD24C,6.400000*%
%ADD25RoundRect,0.147500X0.147500X0.172500X-0.147500X0.172500X-0.147500X-0.172500X0.147500X-0.172500X0*%
%ADD26RoundRect,0.135000X0.185000X-0.135000X0.185000X0.135000X-0.185000X0.135000X-0.185000X-0.135000X0*%
%ADD27C,0.500000*%
%ADD28RoundRect,0.250000X0.550000X-1.500000X0.550000X1.500000X-0.550000X1.500000X-0.550000X-1.500000X0*%
%ADD29RoundRect,0.135000X0.135000X0.185000X-0.135000X0.185000X-0.135000X-0.185000X0.135000X-0.185000X0*%
%ADD30C,1.000000*%
%ADD31RoundRect,0.250000X0.650000X-0.325000X0.650000X0.325000X-0.650000X0.325000X-0.650000X-0.325000X0*%
%ADD32RoundRect,0.140000X0.170000X-0.140000X0.170000X0.140000X-0.170000X0.140000X-0.170000X-0.140000X0*%
%ADD33R,3.251000X3.124000*%
%ADD34RoundRect,0.140000X-0.170000X0.140000X-0.170000X-0.140000X0.170000X-0.140000X0.170000X0.140000X0*%
%ADD35RoundRect,0.225000X-0.250000X0.225000X-0.250000X-0.225000X0.250000X-0.225000X0.250000X0.225000X0*%
%ADD36R,1.950000X1.950000*%
%ADD37C,1.950000*%
%ADD38R,0.550000X0.300000*%
%ADD39FreePoly0,0.000000*%
%ADD40R,0.300000X0.725000*%
%ADD41R,0.300000X0.730000*%
%ADD42R,0.725000X0.300000*%
%ADD43FreePoly1,90.000000*%
%ADD44FreePoly2,90.000000*%
%ADD45FreePoly3,90.000000*%
%ADD46R,0.580000X0.380000*%
%ADD47RoundRect,0.225000X-0.225000X-0.250000X0.225000X-0.250000X0.225000X0.250000X-0.225000X0.250000X0*%
%ADD48RoundRect,0.147500X-0.172500X0.147500X-0.172500X-0.147500X0.172500X-0.147500X0.172500X0.147500X0*%
%ADD49RoundRect,0.250000X-0.275000X-0.700000X0.275000X-0.700000X0.275000X0.700000X-0.275000X0.700000X0*%
%ADD50C,0.400000*%
%ADD51C,0.800000*%
G04 APERTURE END LIST*
D10*
X197200000Y-108496428D02*
X197200000Y-108925000D01*
X197171428Y-109010714D01*
X197114285Y-109067857D01*
X197028571Y-109096428D01*
X196971428Y-109096428D01*
X197771428Y-108496428D02*
X197485714Y-108496428D01*
X197457142Y-108782142D01*
X197485714Y-108753571D01*
X197542857Y-108725000D01*
X197685714Y-108725000D01*
X197742857Y-108753571D01*
X197771428Y-108782142D01*
X197800000Y-108839285D01*
X197800000Y-108982142D01*
X197771428Y-109039285D01*
X197742857Y-109067857D01*
X197685714Y-109096428D01*
X197542857Y-109096428D01*
X197485714Y-109067857D01*
X197457142Y-109039285D01*
X201925000Y-115671428D02*
X201725000Y-115385714D01*
X201582142Y-115671428D02*
X201582142Y-115071428D01*
X201810714Y-115071428D01*
X201867857Y-115100000D01*
X201896428Y-115128571D01*
X201925000Y-115185714D01*
X201925000Y-115271428D01*
X201896428Y-115328571D01*
X201867857Y-115357142D01*
X201810714Y-115385714D01*
X201582142Y-115385714D01*
X202125000Y-115071428D02*
X202525000Y-115071428D01*
X202267857Y-115671428D01*
X174364285Y-129671428D02*
X174164285Y-129385714D01*
X174021428Y-129671428D02*
X174021428Y-129071428D01*
X174250000Y-129071428D01*
X174307142Y-129100000D01*
X174335714Y-129128571D01*
X174364285Y-129185714D01*
X174364285Y-129271428D01*
X174335714Y-129328571D01*
X174307142Y-129357142D01*
X174250000Y-129385714D01*
X174021428Y-129385714D01*
X174935714Y-129671428D02*
X174592857Y-129671428D01*
X174764285Y-129671428D02*
X174764285Y-129071428D01*
X174707142Y-129157142D01*
X174650000Y-129214285D01*
X174592857Y-129242857D01*
X175278571Y-129328571D02*
X175221428Y-129300000D01*
X175192857Y-129271428D01*
X175164285Y-129214285D01*
X175164285Y-129185714D01*
X175192857Y-129128571D01*
X175221428Y-129100000D01*
X175278571Y-129071428D01*
X175392857Y-129071428D01*
X175450000Y-129100000D01*
X175478571Y-129128571D01*
X175507142Y-129185714D01*
X175507142Y-129214285D01*
X175478571Y-129271428D01*
X175450000Y-129300000D01*
X175392857Y-129328571D01*
X175278571Y-129328571D01*
X175221428Y-129357142D01*
X175192857Y-129385714D01*
X175164285Y-129442857D01*
X175164285Y-129557142D01*
X175192857Y-129614285D01*
X175221428Y-129642857D01*
X175278571Y-129671428D01*
X175392857Y-129671428D01*
X175450000Y-129642857D01*
X175478571Y-129614285D01*
X175507142Y-129557142D01*
X175507142Y-129442857D01*
X175478571Y-129385714D01*
X175450000Y-129357142D01*
X175392857Y-129328571D01*
X184900000Y-122914285D02*
X184871428Y-122942857D01*
X184785714Y-122971428D01*
X184728571Y-122971428D01*
X184642857Y-122942857D01*
X184585714Y-122885714D01*
X184557142Y-122828571D01*
X184528571Y-122714285D01*
X184528571Y-122628571D01*
X184557142Y-122514285D01*
X184585714Y-122457142D01*
X184642857Y-122400000D01*
X184728571Y-122371428D01*
X184785714Y-122371428D01*
X184871428Y-122400000D01*
X184900000Y-122428571D01*
X185100000Y-122371428D02*
X185471428Y-122371428D01*
X185271428Y-122600000D01*
X185357142Y-122600000D01*
X185414285Y-122628571D01*
X185442857Y-122657142D01*
X185471428Y-122714285D01*
X185471428Y-122857142D01*
X185442857Y-122914285D01*
X185414285Y-122942857D01*
X185357142Y-122971428D01*
X185185714Y-122971428D01*
X185128571Y-122942857D01*
X185100000Y-122914285D01*
X174339285Y-122896428D02*
X174139285Y-122610714D01*
X173996428Y-122896428D02*
X173996428Y-122296428D01*
X174225000Y-122296428D01*
X174282142Y-122325000D01*
X174310714Y-122353571D01*
X174339285Y-122410714D01*
X174339285Y-122496428D01*
X174310714Y-122553571D01*
X174282142Y-122582142D01*
X174225000Y-122610714D01*
X173996428Y-122610714D01*
X174910714Y-122896428D02*
X174567857Y-122896428D01*
X174739285Y-122896428D02*
X174739285Y-122296428D01*
X174682142Y-122382142D01*
X174625000Y-122439285D01*
X174567857Y-122467857D01*
X175425000Y-122296428D02*
X175310714Y-122296428D01*
X175253571Y-122325000D01*
X175225000Y-122353571D01*
X175167857Y-122439285D01*
X175139285Y-122553571D01*
X175139285Y-122782142D01*
X175167857Y-122839285D01*
X175196428Y-122867857D01*
X175253571Y-122896428D01*
X175367857Y-122896428D01*
X175425000Y-122867857D01*
X175453571Y-122839285D01*
X175482142Y-122782142D01*
X175482142Y-122639285D01*
X175453571Y-122582142D01*
X175425000Y-122553571D01*
X175367857Y-122525000D01*
X175253571Y-122525000D01*
X175196428Y-122553571D01*
X175167857Y-122582142D01*
X175139285Y-122639285D01*
X191939285Y-116314285D02*
X191910714Y-116342857D01*
X191825000Y-116371428D01*
X191767857Y-116371428D01*
X191682142Y-116342857D01*
X191625000Y-116285714D01*
X191596428Y-116228571D01*
X191567857Y-116114285D01*
X191567857Y-116028571D01*
X191596428Y-115914285D01*
X191625000Y-115857142D01*
X191682142Y-115800000D01*
X191767857Y-115771428D01*
X191825000Y-115771428D01*
X191910714Y-115800000D01*
X191939285Y-115828571D01*
X192167857Y-115828571D02*
X192196428Y-115800000D01*
X192253571Y-115771428D01*
X192396428Y-115771428D01*
X192453571Y-115800000D01*
X192482142Y-115828571D01*
X192510714Y-115885714D01*
X192510714Y-115942857D01*
X192482142Y-116028571D01*
X192139285Y-116371428D01*
X192510714Y-116371428D01*
X192882142Y-115771428D02*
X192939285Y-115771428D01*
X192996428Y-115800000D01*
X193025000Y-115828571D01*
X193053571Y-115885714D01*
X193082142Y-116000000D01*
X193082142Y-116142857D01*
X193053571Y-116257142D01*
X193025000Y-116314285D01*
X192996428Y-116342857D01*
X192939285Y-116371428D01*
X192882142Y-116371428D01*
X192825000Y-116342857D01*
X192796428Y-116314285D01*
X192767857Y-116257142D01*
X192739285Y-116142857D01*
X192739285Y-116000000D01*
X192767857Y-115885714D01*
X192796428Y-115828571D01*
X192825000Y-115800000D01*
X192882142Y-115771428D01*
X175907142Y-129671428D02*
X175907142Y-129071428D01*
X176050000Y-129071428D01*
X176135714Y-129100000D01*
X176192857Y-129157142D01*
X176221428Y-129214285D01*
X176250000Y-129328571D01*
X176250000Y-129414285D01*
X176221428Y-129528571D01*
X176192857Y-129585714D01*
X176135714Y-129642857D01*
X176050000Y-129671428D01*
X175907142Y-129671428D01*
X176478571Y-129128571D02*
X176507142Y-129100000D01*
X176564285Y-129071428D01*
X176707142Y-129071428D01*
X176764285Y-129100000D01*
X176792857Y-129128571D01*
X176821428Y-129185714D01*
X176821428Y-129242857D01*
X176792857Y-129328571D01*
X176450000Y-129671428D01*
X176821428Y-129671428D01*
X194839285Y-145771428D02*
X194639285Y-145485714D01*
X194496428Y-145771428D02*
X194496428Y-145171428D01*
X194725000Y-145171428D01*
X194782142Y-145200000D01*
X194810714Y-145228571D01*
X194839285Y-145285714D01*
X194839285Y-145371428D01*
X194810714Y-145428571D01*
X194782142Y-145457142D01*
X194725000Y-145485714D01*
X194496428Y-145485714D01*
X195410714Y-145771428D02*
X195067857Y-145771428D01*
X195239285Y-145771428D02*
X195239285Y-145171428D01*
X195182142Y-145257142D01*
X195125000Y-145314285D01*
X195067857Y-145342857D01*
X195610714Y-145171428D02*
X195982142Y-145171428D01*
X195782142Y-145400000D01*
X195867857Y-145400000D01*
X195925000Y-145428571D01*
X195953571Y-145457142D01*
X195982142Y-145514285D01*
X195982142Y-145657142D01*
X195953571Y-145714285D01*
X195925000Y-145742857D01*
X195867857Y-145771428D01*
X195696428Y-145771428D01*
X195639285Y-145742857D01*
X195610714Y-145714285D01*
X175992857Y-133373428D02*
X176335714Y-133373428D01*
X176164285Y-133973428D02*
X176164285Y-133373428D01*
X176535714Y-133973428D02*
X176535714Y-133373428D01*
X176764285Y-133373428D01*
X176821428Y-133402000D01*
X176850000Y-133430571D01*
X176878571Y-133487714D01*
X176878571Y-133573428D01*
X176850000Y-133630571D01*
X176821428Y-133659142D01*
X176764285Y-133687714D01*
X176535714Y-133687714D01*
X177078571Y-133373428D02*
X177478571Y-133373428D01*
X177221428Y-133973428D01*
X200860000Y-130021428D02*
X200860000Y-130450000D01*
X200831428Y-130535714D01*
X200774285Y-130592857D01*
X200688571Y-130621428D01*
X200631428Y-130621428D01*
X201088571Y-130021428D02*
X201488571Y-130021428D01*
X201231428Y-130621428D01*
X183964285Y-109064285D02*
X183935714Y-109092857D01*
X183850000Y-109121428D01*
X183792857Y-109121428D01*
X183707142Y-109092857D01*
X183650000Y-109035714D01*
X183621428Y-108978571D01*
X183592857Y-108864285D01*
X183592857Y-108778571D01*
X183621428Y-108664285D01*
X183650000Y-108607142D01*
X183707142Y-108550000D01*
X183792857Y-108521428D01*
X183850000Y-108521428D01*
X183935714Y-108550000D01*
X183964285Y-108578571D01*
X184535714Y-109121428D02*
X184192857Y-109121428D01*
X184364285Y-109121428D02*
X184364285Y-108521428D01*
X184307142Y-108607142D01*
X184250000Y-108664285D01*
X184192857Y-108692857D01*
X184821428Y-109121428D02*
X184935714Y-109121428D01*
X184992857Y-109092857D01*
X185021428Y-109064285D01*
X185078571Y-108978571D01*
X185107142Y-108864285D01*
X185107142Y-108635714D01*
X185078571Y-108578571D01*
X185050000Y-108550000D01*
X184992857Y-108521428D01*
X184878571Y-108521428D01*
X184821428Y-108550000D01*
X184792857Y-108578571D01*
X184764285Y-108635714D01*
X184764285Y-108778571D01*
X184792857Y-108835714D01*
X184821428Y-108864285D01*
X184878571Y-108892857D01*
X184992857Y-108892857D01*
X185050000Y-108864285D01*
X185078571Y-108835714D01*
X185107142Y-108778571D01*
X197525000Y-114296428D02*
X197325000Y-114010714D01*
X197182142Y-114296428D02*
X197182142Y-113696428D01*
X197410714Y-113696428D01*
X197467857Y-113725000D01*
X197496428Y-113753571D01*
X197525000Y-113810714D01*
X197525000Y-113896428D01*
X197496428Y-113953571D01*
X197467857Y-113982142D01*
X197410714Y-114010714D01*
X197182142Y-114010714D01*
X197867857Y-113953571D02*
X197810714Y-113925000D01*
X197782142Y-113896428D01*
X197753571Y-113839285D01*
X197753571Y-113810714D01*
X197782142Y-113753571D01*
X197810714Y-113725000D01*
X197867857Y-113696428D01*
X197982142Y-113696428D01*
X198039285Y-113725000D01*
X198067857Y-113753571D01*
X198096428Y-113810714D01*
X198096428Y-113839285D01*
X198067857Y-113896428D01*
X198039285Y-113925000D01*
X197982142Y-113953571D01*
X197867857Y-113953571D01*
X197810714Y-113982142D01*
X197782142Y-114010714D01*
X197753571Y-114067857D01*
X197753571Y-114182142D01*
X197782142Y-114239285D01*
X197810714Y-114267857D01*
X197867857Y-114296428D01*
X197982142Y-114296428D01*
X198039285Y-114267857D01*
X198067857Y-114239285D01*
X198096428Y-114182142D01*
X198096428Y-114067857D01*
X198067857Y-114010714D01*
X198039285Y-113982142D01*
X197982142Y-113953571D01*
X191164285Y-145771428D02*
X190964285Y-145485714D01*
X190821428Y-145771428D02*
X190821428Y-145171428D01*
X191050000Y-145171428D01*
X191107142Y-145200000D01*
X191135714Y-145228571D01*
X191164285Y-145285714D01*
X191164285Y-145371428D01*
X191135714Y-145428571D01*
X191107142Y-145457142D01*
X191050000Y-145485714D01*
X190821428Y-145485714D01*
X191735714Y-145771428D02*
X191392857Y-145771428D01*
X191564285Y-145771428D02*
X191564285Y-145171428D01*
X191507142Y-145257142D01*
X191450000Y-145314285D01*
X191392857Y-145342857D01*
X191964285Y-145228571D02*
X191992857Y-145200000D01*
X192050000Y-145171428D01*
X192192857Y-145171428D01*
X192250000Y-145200000D01*
X192278571Y-145228571D01*
X192307142Y-145285714D01*
X192307142Y-145342857D01*
X192278571Y-145428571D01*
X191935714Y-145771428D01*
X192307142Y-145771428D01*
X193464285Y-135171428D02*
X193464285Y-135600000D01*
X193435714Y-135685714D01*
X193378571Y-135742857D01*
X193292857Y-135771428D01*
X193235714Y-135771428D01*
X194064285Y-135771428D02*
X193721428Y-135771428D01*
X193892857Y-135771428D02*
X193892857Y-135171428D01*
X193835714Y-135257142D01*
X193778571Y-135314285D01*
X193721428Y-135342857D01*
X194635714Y-135771428D02*
X194292857Y-135771428D01*
X194464285Y-135771428D02*
X194464285Y-135171428D01*
X194407142Y-135257142D01*
X194350000Y-135314285D01*
X194292857Y-135342857D01*
X210650000Y-132121428D02*
X210450000Y-131835714D01*
X210307142Y-132121428D02*
X210307142Y-131521428D01*
X210535714Y-131521428D01*
X210592857Y-131550000D01*
X210621428Y-131578571D01*
X210650000Y-131635714D01*
X210650000Y-131721428D01*
X210621428Y-131778571D01*
X210592857Y-131807142D01*
X210535714Y-131835714D01*
X210307142Y-131835714D01*
X210878571Y-131578571D02*
X210907142Y-131550000D01*
X210964285Y-131521428D01*
X211107142Y-131521428D01*
X211164285Y-131550000D01*
X211192857Y-131578571D01*
X211221428Y-131635714D01*
X211221428Y-131692857D01*
X211192857Y-131778571D01*
X210850000Y-132121428D01*
X211221428Y-132121428D01*
X180154285Y-129114285D02*
X180125714Y-129142857D01*
X180040000Y-129171428D01*
X179982857Y-129171428D01*
X179897142Y-129142857D01*
X179840000Y-129085714D01*
X179811428Y-129028571D01*
X179782857Y-128914285D01*
X179782857Y-128828571D01*
X179811428Y-128714285D01*
X179840000Y-128657142D01*
X179897142Y-128600000D01*
X179982857Y-128571428D01*
X180040000Y-128571428D01*
X180125714Y-128600000D01*
X180154285Y-128628571D01*
X180725714Y-129171428D02*
X180382857Y-129171428D01*
X180554285Y-129171428D02*
X180554285Y-128571428D01*
X180497142Y-128657142D01*
X180440000Y-128714285D01*
X180382857Y-128742857D01*
X181240000Y-128771428D02*
X181240000Y-129171428D01*
X181097142Y-128542857D02*
X180954285Y-128971428D01*
X181325714Y-128971428D01*
X195500000Y-113564285D02*
X195471428Y-113592857D01*
X195385714Y-113621428D01*
X195328571Y-113621428D01*
X195242857Y-113592857D01*
X195185714Y-113535714D01*
X195157142Y-113478571D01*
X195128571Y-113364285D01*
X195128571Y-113278571D01*
X195157142Y-113164285D01*
X195185714Y-113107142D01*
X195242857Y-113050000D01*
X195328571Y-113021428D01*
X195385714Y-113021428D01*
X195471428Y-113050000D01*
X195500000Y-113078571D01*
X196071428Y-113621428D02*
X195728571Y-113621428D01*
X195900000Y-113621428D02*
X195900000Y-113021428D01*
X195842857Y-113107142D01*
X195785714Y-113164285D01*
X195728571Y-113192857D01*
X176675000Y-140621428D02*
X176475000Y-140335714D01*
X176332142Y-140621428D02*
X176332142Y-140021428D01*
X176560714Y-140021428D01*
X176617857Y-140050000D01*
X176646428Y-140078571D01*
X176675000Y-140135714D01*
X176675000Y-140221428D01*
X176646428Y-140278571D01*
X176617857Y-140307142D01*
X176560714Y-140335714D01*
X176332142Y-140335714D01*
X177189285Y-140021428D02*
X177075000Y-140021428D01*
X177017857Y-140050000D01*
X176989285Y-140078571D01*
X176932142Y-140164285D01*
X176903571Y-140278571D01*
X176903571Y-140507142D01*
X176932142Y-140564285D01*
X176960714Y-140592857D01*
X177017857Y-140621428D01*
X177132142Y-140621428D01*
X177189285Y-140592857D01*
X177217857Y-140564285D01*
X177246428Y-140507142D01*
X177246428Y-140364285D01*
X177217857Y-140307142D01*
X177189285Y-140278571D01*
X177132142Y-140250000D01*
X177017857Y-140250000D01*
X176960714Y-140278571D01*
X176932142Y-140307142D01*
X176903571Y-140364285D01*
X203750000Y-120646428D02*
X203550000Y-120360714D01*
X203407142Y-120646428D02*
X203407142Y-120046428D01*
X203635714Y-120046428D01*
X203692857Y-120075000D01*
X203721428Y-120103571D01*
X203750000Y-120160714D01*
X203750000Y-120246428D01*
X203721428Y-120303571D01*
X203692857Y-120332142D01*
X203635714Y-120360714D01*
X203407142Y-120360714D01*
X204292857Y-120046428D02*
X204007142Y-120046428D01*
X203978571Y-120332142D01*
X204007142Y-120303571D01*
X204064285Y-120275000D01*
X204207142Y-120275000D01*
X204264285Y-120303571D01*
X204292857Y-120332142D01*
X204321428Y-120389285D01*
X204321428Y-120532142D01*
X204292857Y-120589285D01*
X204264285Y-120617857D01*
X204207142Y-120646428D01*
X204064285Y-120646428D01*
X204007142Y-120617857D01*
X203978571Y-120589285D01*
X200875000Y-133671428D02*
X200875000Y-134100000D01*
X200846428Y-134185714D01*
X200789285Y-134242857D01*
X200703571Y-134271428D01*
X200646428Y-134271428D01*
X201417857Y-133671428D02*
X201303571Y-133671428D01*
X201246428Y-133700000D01*
X201217857Y-133728571D01*
X201160714Y-133814285D01*
X201132142Y-133928571D01*
X201132142Y-134157142D01*
X201160714Y-134214285D01*
X201189285Y-134242857D01*
X201246428Y-134271428D01*
X201360714Y-134271428D01*
X201417857Y-134242857D01*
X201446428Y-134214285D01*
X201475000Y-134157142D01*
X201475000Y-134014285D01*
X201446428Y-133957142D01*
X201417857Y-133928571D01*
X201360714Y-133900000D01*
X201246428Y-133900000D01*
X201189285Y-133928571D01*
X201160714Y-133957142D01*
X201132142Y-134014285D01*
X182679285Y-129114285D02*
X182650714Y-129142857D01*
X182565000Y-129171428D01*
X182507857Y-129171428D01*
X182422142Y-129142857D01*
X182365000Y-129085714D01*
X182336428Y-129028571D01*
X182307857Y-128914285D01*
X182307857Y-128828571D01*
X182336428Y-128714285D01*
X182365000Y-128657142D01*
X182422142Y-128600000D01*
X182507857Y-128571428D01*
X182565000Y-128571428D01*
X182650714Y-128600000D01*
X182679285Y-128628571D01*
X183250714Y-129171428D02*
X182907857Y-129171428D01*
X183079285Y-129171428D02*
X183079285Y-128571428D01*
X183022142Y-128657142D01*
X182965000Y-128714285D01*
X182907857Y-128742857D01*
X183793571Y-128571428D02*
X183507857Y-128571428D01*
X183479285Y-128857142D01*
X183507857Y-128828571D01*
X183565000Y-128800000D01*
X183707857Y-128800000D01*
X183765000Y-128828571D01*
X183793571Y-128857142D01*
X183822142Y-128914285D01*
X183822142Y-129057142D01*
X183793571Y-129114285D01*
X183765000Y-129142857D01*
X183707857Y-129171428D01*
X183565000Y-129171428D01*
X183507857Y-129142857D01*
X183479285Y-129114285D01*
X189225000Y-121896428D02*
X188939285Y-121896428D01*
X188939285Y-121296428D01*
X189739285Y-121896428D02*
X189396428Y-121896428D01*
X189567857Y-121896428D02*
X189567857Y-121296428D01*
X189510714Y-121382142D01*
X189453571Y-121439285D01*
X189396428Y-121467857D01*
X181739285Y-140621428D02*
X181539285Y-140335714D01*
X181396428Y-140621428D02*
X181396428Y-140021428D01*
X181625000Y-140021428D01*
X181682142Y-140050000D01*
X181710714Y-140078571D01*
X181739285Y-140135714D01*
X181739285Y-140221428D01*
X181710714Y-140278571D01*
X181682142Y-140307142D01*
X181625000Y-140335714D01*
X181396428Y-140335714D01*
X182310714Y-140621428D02*
X181967857Y-140621428D01*
X182139285Y-140621428D02*
X182139285Y-140021428D01*
X182082142Y-140107142D01*
X182025000Y-140164285D01*
X181967857Y-140192857D01*
X182682142Y-140021428D02*
X182739285Y-140021428D01*
X182796428Y-140050000D01*
X182825000Y-140078571D01*
X182853571Y-140135714D01*
X182882142Y-140250000D01*
X182882142Y-140392857D01*
X182853571Y-140507142D01*
X182825000Y-140564285D01*
X182796428Y-140592857D01*
X182739285Y-140621428D01*
X182682142Y-140621428D01*
X182625000Y-140592857D01*
X182596428Y-140564285D01*
X182567857Y-140507142D01*
X182539285Y-140392857D01*
X182539285Y-140250000D01*
X182567857Y-140135714D01*
X182596428Y-140078571D01*
X182625000Y-140050000D01*
X182682142Y-140021428D01*
X200875000Y-122715428D02*
X200875000Y-123144000D01*
X200846428Y-123229714D01*
X200789285Y-123286857D01*
X200703571Y-123315428D01*
X200646428Y-123315428D01*
X201189285Y-123315428D02*
X201303571Y-123315428D01*
X201360714Y-123286857D01*
X201389285Y-123258285D01*
X201446428Y-123172571D01*
X201475000Y-123058285D01*
X201475000Y-122829714D01*
X201446428Y-122772571D01*
X201417857Y-122744000D01*
X201360714Y-122715428D01*
X201246428Y-122715428D01*
X201189285Y-122744000D01*
X201160714Y-122772571D01*
X201132142Y-122829714D01*
X201132142Y-122972571D01*
X201160714Y-123029714D01*
X201189285Y-123058285D01*
X201246428Y-123086857D01*
X201360714Y-123086857D01*
X201417857Y-123058285D01*
X201446428Y-123029714D01*
X201475000Y-122972571D01*
X182689285Y-134614285D02*
X182660714Y-134642857D01*
X182575000Y-134671428D01*
X182517857Y-134671428D01*
X182432142Y-134642857D01*
X182375000Y-134585714D01*
X182346428Y-134528571D01*
X182317857Y-134414285D01*
X182317857Y-134328571D01*
X182346428Y-134214285D01*
X182375000Y-134157142D01*
X182432142Y-134100000D01*
X182517857Y-134071428D01*
X182575000Y-134071428D01*
X182660714Y-134100000D01*
X182689285Y-134128571D01*
X183260714Y-134671428D02*
X182917857Y-134671428D01*
X183089285Y-134671428D02*
X183089285Y-134071428D01*
X183032142Y-134157142D01*
X182975000Y-134214285D01*
X182917857Y-134242857D01*
X183489285Y-134128571D02*
X183517857Y-134100000D01*
X183575000Y-134071428D01*
X183717857Y-134071428D01*
X183775000Y-134100000D01*
X183803571Y-134128571D01*
X183832142Y-134185714D01*
X183832142Y-134242857D01*
X183803571Y-134328571D01*
X183460714Y-134671428D01*
X183832142Y-134671428D01*
X198514285Y-145771428D02*
X198314285Y-145485714D01*
X198171428Y-145771428D02*
X198171428Y-145171428D01*
X198400000Y-145171428D01*
X198457142Y-145200000D01*
X198485714Y-145228571D01*
X198514285Y-145285714D01*
X198514285Y-145371428D01*
X198485714Y-145428571D01*
X198457142Y-145457142D01*
X198400000Y-145485714D01*
X198171428Y-145485714D01*
X199085714Y-145771428D02*
X198742857Y-145771428D01*
X198914285Y-145771428D02*
X198914285Y-145171428D01*
X198857142Y-145257142D01*
X198800000Y-145314285D01*
X198742857Y-145342857D01*
X199285714Y-145171428D02*
X199685714Y-145171428D01*
X199428571Y-145771428D01*
X187400000Y-122939285D02*
X187371428Y-122967857D01*
X187285714Y-122996428D01*
X187228571Y-122996428D01*
X187142857Y-122967857D01*
X187085714Y-122910714D01*
X187057142Y-122853571D01*
X187028571Y-122739285D01*
X187028571Y-122653571D01*
X187057142Y-122539285D01*
X187085714Y-122482142D01*
X187142857Y-122425000D01*
X187228571Y-122396428D01*
X187285714Y-122396428D01*
X187371428Y-122425000D01*
X187400000Y-122453571D01*
X187914285Y-122596428D02*
X187914285Y-122996428D01*
X187771428Y-122367857D02*
X187628571Y-122796428D01*
X188000000Y-122796428D01*
X200714285Y-135171428D02*
X200714285Y-135600000D01*
X200685714Y-135685714D01*
X200628571Y-135742857D01*
X200542857Y-135771428D01*
X200485714Y-135771428D01*
X201314285Y-135771428D02*
X200971428Y-135771428D01*
X201142857Y-135771428D02*
X201142857Y-135171428D01*
X201085714Y-135257142D01*
X201028571Y-135314285D01*
X200971428Y-135342857D01*
X201514285Y-135171428D02*
X201885714Y-135171428D01*
X201685714Y-135400000D01*
X201771428Y-135400000D01*
X201828571Y-135428571D01*
X201857142Y-135457142D01*
X201885714Y-135514285D01*
X201885714Y-135657142D01*
X201857142Y-135714285D01*
X201828571Y-135742857D01*
X201771428Y-135771428D01*
X201600000Y-135771428D01*
X201542857Y-135742857D01*
X201514285Y-135714285D01*
X192625000Y-114246428D02*
X192425000Y-113960714D01*
X192282142Y-114246428D02*
X192282142Y-113646428D01*
X192510714Y-113646428D01*
X192567857Y-113675000D01*
X192596428Y-113703571D01*
X192625000Y-113760714D01*
X192625000Y-113846428D01*
X192596428Y-113903571D01*
X192567857Y-113932142D01*
X192510714Y-113960714D01*
X192282142Y-113960714D01*
X193196428Y-114246428D02*
X192853571Y-114246428D01*
X193025000Y-114246428D02*
X193025000Y-113646428D01*
X192967857Y-113732142D01*
X192910714Y-113789285D01*
X192853571Y-113817857D01*
X184289285Y-140621428D02*
X184089285Y-140335714D01*
X183946428Y-140621428D02*
X183946428Y-140021428D01*
X184175000Y-140021428D01*
X184232142Y-140050000D01*
X184260714Y-140078571D01*
X184289285Y-140135714D01*
X184289285Y-140221428D01*
X184260714Y-140278571D01*
X184232142Y-140307142D01*
X184175000Y-140335714D01*
X183946428Y-140335714D01*
X184860714Y-140621428D02*
X184517857Y-140621428D01*
X184689285Y-140621428D02*
X184689285Y-140021428D01*
X184632142Y-140107142D01*
X184575000Y-140164285D01*
X184517857Y-140192857D01*
X185432142Y-140621428D02*
X185089285Y-140621428D01*
X185260714Y-140621428D02*
X185260714Y-140021428D01*
X185203571Y-140107142D01*
X185146428Y-140164285D01*
X185089285Y-140192857D01*
X174689285Y-114914285D02*
X174660714Y-114942857D01*
X174575000Y-114971428D01*
X174517857Y-114971428D01*
X174432142Y-114942857D01*
X174375000Y-114885714D01*
X174346428Y-114828571D01*
X174317857Y-114714285D01*
X174317857Y-114628571D01*
X174346428Y-114514285D01*
X174375000Y-114457142D01*
X174432142Y-114400000D01*
X174517857Y-114371428D01*
X174575000Y-114371428D01*
X174660714Y-114400000D01*
X174689285Y-114428571D01*
X175260714Y-114971428D02*
X174917857Y-114971428D01*
X175089285Y-114971428D02*
X175089285Y-114371428D01*
X175032142Y-114457142D01*
X174975000Y-114514285D01*
X174917857Y-114542857D01*
X175460714Y-114371428D02*
X175860714Y-114371428D01*
X175603571Y-114971428D01*
X203742857Y-115923428D02*
X204085714Y-115923428D01*
X203914285Y-116523428D02*
X203914285Y-115923428D01*
X204285714Y-116523428D02*
X204285714Y-115923428D01*
X204514285Y-115923428D01*
X204571428Y-115952000D01*
X204600000Y-115980571D01*
X204628571Y-116037714D01*
X204628571Y-116123428D01*
X204600000Y-116180571D01*
X204571428Y-116209142D01*
X204514285Y-116237714D01*
X204285714Y-116237714D01*
X204828571Y-115923428D02*
X205200000Y-115923428D01*
X205000000Y-116152000D01*
X205085714Y-116152000D01*
X205142857Y-116180571D01*
X205171428Y-116209142D01*
X205200000Y-116266285D01*
X205200000Y-116409142D01*
X205171428Y-116466285D01*
X205142857Y-116494857D01*
X205085714Y-116523428D01*
X204914285Y-116523428D01*
X204857142Y-116494857D01*
X204828571Y-116466285D01*
X200875000Y-126371428D02*
X200875000Y-126800000D01*
X200846428Y-126885714D01*
X200789285Y-126942857D01*
X200703571Y-126971428D01*
X200646428Y-126971428D01*
X201246428Y-126628571D02*
X201189285Y-126600000D01*
X201160714Y-126571428D01*
X201132142Y-126514285D01*
X201132142Y-126485714D01*
X201160714Y-126428571D01*
X201189285Y-126400000D01*
X201246428Y-126371428D01*
X201360714Y-126371428D01*
X201417857Y-126400000D01*
X201446428Y-126428571D01*
X201475000Y-126485714D01*
X201475000Y-126514285D01*
X201446428Y-126571428D01*
X201417857Y-126600000D01*
X201360714Y-126628571D01*
X201246428Y-126628571D01*
X201189285Y-126657142D01*
X201160714Y-126685714D01*
X201132142Y-126742857D01*
X201132142Y-126857142D01*
X201160714Y-126914285D01*
X201189285Y-126942857D01*
X201246428Y-126971428D01*
X201360714Y-126971428D01*
X201417857Y-126942857D01*
X201446428Y-126914285D01*
X201475000Y-126857142D01*
X201475000Y-126742857D01*
X201446428Y-126685714D01*
X201417857Y-126657142D01*
X201360714Y-126628571D01*
X185214285Y-134614285D02*
X185185714Y-134642857D01*
X185100000Y-134671428D01*
X185042857Y-134671428D01*
X184957142Y-134642857D01*
X184900000Y-134585714D01*
X184871428Y-134528571D01*
X184842857Y-134414285D01*
X184842857Y-134328571D01*
X184871428Y-134214285D01*
X184900000Y-134157142D01*
X184957142Y-134100000D01*
X185042857Y-134071428D01*
X185100000Y-134071428D01*
X185185714Y-134100000D01*
X185214285Y-134128571D01*
X185785714Y-134671428D02*
X185442857Y-134671428D01*
X185614285Y-134671428D02*
X185614285Y-134071428D01*
X185557142Y-134157142D01*
X185500000Y-134214285D01*
X185442857Y-134242857D01*
X186357142Y-134671428D02*
X186014285Y-134671428D01*
X186185714Y-134671428D02*
X186185714Y-134071428D01*
X186128571Y-134157142D01*
X186071428Y-134214285D01*
X186014285Y-134242857D01*
X185650000Y-144164285D02*
X185621428Y-144192857D01*
X185535714Y-144221428D01*
X185478571Y-144221428D01*
X185392857Y-144192857D01*
X185335714Y-144135714D01*
X185307142Y-144078571D01*
X185278571Y-143964285D01*
X185278571Y-143878571D01*
X185307142Y-143764285D01*
X185335714Y-143707142D01*
X185392857Y-143650000D01*
X185478571Y-143621428D01*
X185535714Y-143621428D01*
X185621428Y-143650000D01*
X185650000Y-143678571D01*
X185935714Y-144221428D02*
X186050000Y-144221428D01*
X186107142Y-144192857D01*
X186135714Y-144164285D01*
X186192857Y-144078571D01*
X186221428Y-143964285D01*
X186221428Y-143735714D01*
X186192857Y-143678571D01*
X186164285Y-143650000D01*
X186107142Y-143621428D01*
X185992857Y-143621428D01*
X185935714Y-143650000D01*
X185907142Y-143678571D01*
X185878571Y-143735714D01*
X185878571Y-143878571D01*
X185907142Y-143935714D01*
X185935714Y-143964285D01*
X185992857Y-143992857D01*
X186107142Y-143992857D01*
X186164285Y-143964285D01*
X186192857Y-143935714D01*
X186221428Y-143878571D01*
X206225000Y-116921428D02*
X206225000Y-117350000D01*
X206196428Y-117435714D01*
X206139285Y-117492857D01*
X206053571Y-117521428D01*
X205996428Y-117521428D01*
X206767857Y-117121428D02*
X206767857Y-117521428D01*
X206625000Y-116892857D02*
X206482142Y-117321428D01*
X206853571Y-117321428D01*
X186567857Y-144021428D02*
X186910714Y-144021428D01*
X186739285Y-144621428D02*
X186739285Y-144021428D01*
X187110714Y-144621428D02*
X187110714Y-144021428D01*
X187339285Y-144021428D01*
X187396428Y-144050000D01*
X187425000Y-144078571D01*
X187453571Y-144135714D01*
X187453571Y-144221428D01*
X187425000Y-144278571D01*
X187396428Y-144307142D01*
X187339285Y-144335714D01*
X187110714Y-144335714D01*
X187796428Y-144278571D02*
X187739285Y-144250000D01*
X187710714Y-144221428D01*
X187682142Y-144164285D01*
X187682142Y-144135714D01*
X187710714Y-144078571D01*
X187739285Y-144050000D01*
X187796428Y-144021428D01*
X187910714Y-144021428D01*
X187967857Y-144050000D01*
X187996428Y-144078571D01*
X188025000Y-144135714D01*
X188025000Y-144164285D01*
X187996428Y-144221428D01*
X187967857Y-144250000D01*
X187910714Y-144278571D01*
X187796428Y-144278571D01*
X187739285Y-144307142D01*
X187710714Y-144335714D01*
X187682142Y-144392857D01*
X187682142Y-144507142D01*
X187710714Y-144564285D01*
X187739285Y-144592857D01*
X187796428Y-144621428D01*
X187910714Y-144621428D01*
X187967857Y-144592857D01*
X187996428Y-144564285D01*
X188025000Y-144507142D01*
X188025000Y-144392857D01*
X187996428Y-144335714D01*
X187967857Y-144307142D01*
X187910714Y-144278571D01*
X180114285Y-134614285D02*
X180085714Y-134642857D01*
X180000000Y-134671428D01*
X179942857Y-134671428D01*
X179857142Y-134642857D01*
X179800000Y-134585714D01*
X179771428Y-134528571D01*
X179742857Y-134414285D01*
X179742857Y-134328571D01*
X179771428Y-134214285D01*
X179800000Y-134157142D01*
X179857142Y-134100000D01*
X179942857Y-134071428D01*
X180000000Y-134071428D01*
X180085714Y-134100000D01*
X180114285Y-134128571D01*
X180685714Y-134671428D02*
X180342857Y-134671428D01*
X180514285Y-134671428D02*
X180514285Y-134071428D01*
X180457142Y-134157142D01*
X180400000Y-134214285D01*
X180342857Y-134242857D01*
X180885714Y-134071428D02*
X181257142Y-134071428D01*
X181057142Y-134300000D01*
X181142857Y-134300000D01*
X181200000Y-134328571D01*
X181228571Y-134357142D01*
X181257142Y-134414285D01*
X181257142Y-134557142D01*
X181228571Y-134614285D01*
X181200000Y-134642857D01*
X181142857Y-134671428D01*
X180971428Y-134671428D01*
X180914285Y-134642857D01*
X180885714Y-134614285D01*
X187264285Y-133489285D02*
X187235714Y-133517857D01*
X187150000Y-133546428D01*
X187092857Y-133546428D01*
X187007142Y-133517857D01*
X186950000Y-133460714D01*
X186921428Y-133403571D01*
X186892857Y-133289285D01*
X186892857Y-133203571D01*
X186921428Y-133089285D01*
X186950000Y-133032142D01*
X187007142Y-132975000D01*
X187092857Y-132946428D01*
X187150000Y-132946428D01*
X187235714Y-132975000D01*
X187264285Y-133003571D01*
X187835714Y-133546428D02*
X187492857Y-133546428D01*
X187664285Y-133546428D02*
X187664285Y-132946428D01*
X187607142Y-133032142D01*
X187550000Y-133089285D01*
X187492857Y-133117857D01*
X188207142Y-132946428D02*
X188264285Y-132946428D01*
X188321428Y-132975000D01*
X188350000Y-133003571D01*
X188378571Y-133060714D01*
X188407142Y-133175000D01*
X188407142Y-133317857D01*
X188378571Y-133432142D01*
X188350000Y-133489285D01*
X188321428Y-133517857D01*
X188264285Y-133546428D01*
X188207142Y-133546428D01*
X188150000Y-133517857D01*
X188121428Y-133489285D01*
X188092857Y-133432142D01*
X188064285Y-133317857D01*
X188064285Y-133175000D01*
X188092857Y-133060714D01*
X188121428Y-133003571D01*
X188150000Y-132975000D01*
X188207142Y-132946428D01*
X174225000Y-127171428D02*
X174225000Y-127600000D01*
X174196428Y-127685714D01*
X174139285Y-127742857D01*
X174053571Y-127771428D01*
X173996428Y-127771428D01*
X174482142Y-127228571D02*
X174510714Y-127200000D01*
X174567857Y-127171428D01*
X174710714Y-127171428D01*
X174767857Y-127200000D01*
X174796428Y-127228571D01*
X174825000Y-127285714D01*
X174825000Y-127342857D01*
X174796428Y-127428571D01*
X174453571Y-127771428D01*
X174825000Y-127771428D01*
X199017857Y-114921428D02*
X199017857Y-115407142D01*
X199046428Y-115464285D01*
X199075000Y-115492857D01*
X199132142Y-115521428D01*
X199246428Y-115521428D01*
X199303571Y-115492857D01*
X199332142Y-115464285D01*
X199360714Y-115407142D01*
X199360714Y-114921428D01*
X199960714Y-115521428D02*
X199617857Y-115521428D01*
X199789285Y-115521428D02*
X199789285Y-114921428D01*
X199732142Y-115007142D01*
X199675000Y-115064285D01*
X199617857Y-115092857D01*
X202925000Y-116814285D02*
X202896428Y-116842857D01*
X202810714Y-116871428D01*
X202753571Y-116871428D01*
X202667857Y-116842857D01*
X202610714Y-116785714D01*
X202582142Y-116728571D01*
X202553571Y-116614285D01*
X202553571Y-116528571D01*
X202582142Y-116414285D01*
X202610714Y-116357142D01*
X202667857Y-116300000D01*
X202753571Y-116271428D01*
X202810714Y-116271428D01*
X202896428Y-116300000D01*
X202925000Y-116328571D01*
X203267857Y-116528571D02*
X203210714Y-116500000D01*
X203182142Y-116471428D01*
X203153571Y-116414285D01*
X203153571Y-116385714D01*
X203182142Y-116328571D01*
X203210714Y-116300000D01*
X203267857Y-116271428D01*
X203382142Y-116271428D01*
X203439285Y-116300000D01*
X203467857Y-116328571D01*
X203496428Y-116385714D01*
X203496428Y-116414285D01*
X203467857Y-116471428D01*
X203439285Y-116500000D01*
X203382142Y-116528571D01*
X203267857Y-116528571D01*
X203210714Y-116557142D01*
X203182142Y-116585714D01*
X203153571Y-116642857D01*
X203153571Y-116757142D01*
X203182142Y-116814285D01*
X203210714Y-116842857D01*
X203267857Y-116871428D01*
X203382142Y-116871428D01*
X203439285Y-116842857D01*
X203467857Y-116814285D01*
X203496428Y-116757142D01*
X203496428Y-116642857D01*
X203467857Y-116585714D01*
X203439285Y-116557142D01*
X203382142Y-116528571D01*
X204067857Y-145271428D02*
X204410714Y-145271428D01*
X204239285Y-145871428D02*
X204239285Y-145271428D01*
X204610714Y-145871428D02*
X204610714Y-145271428D01*
X204839285Y-145271428D01*
X204896428Y-145300000D01*
X204925000Y-145328571D01*
X204953571Y-145385714D01*
X204953571Y-145471428D01*
X204925000Y-145528571D01*
X204896428Y-145557142D01*
X204839285Y-145585714D01*
X204610714Y-145585714D01*
X205467857Y-145271428D02*
X205353571Y-145271428D01*
X205296428Y-145300000D01*
X205267857Y-145328571D01*
X205210714Y-145414285D01*
X205182142Y-145528571D01*
X205182142Y-145757142D01*
X205210714Y-145814285D01*
X205239285Y-145842857D01*
X205296428Y-145871428D01*
X205410714Y-145871428D01*
X205467857Y-145842857D01*
X205496428Y-145814285D01*
X205525000Y-145757142D01*
X205525000Y-145614285D01*
X205496428Y-145557142D01*
X205467857Y-145528571D01*
X205410714Y-145500000D01*
X205296428Y-145500000D01*
X205239285Y-145528571D01*
X205210714Y-145557142D01*
X205182142Y-145614285D01*
X194100000Y-119714285D02*
X194071428Y-119742857D01*
X193985714Y-119771428D01*
X193928571Y-119771428D01*
X193842857Y-119742857D01*
X193785714Y-119685714D01*
X193757142Y-119628571D01*
X193728571Y-119514285D01*
X193728571Y-119428571D01*
X193757142Y-119314285D01*
X193785714Y-119257142D01*
X193842857Y-119200000D01*
X193928571Y-119171428D01*
X193985714Y-119171428D01*
X194071428Y-119200000D01*
X194100000Y-119228571D01*
X194614285Y-119171428D02*
X194500000Y-119171428D01*
X194442857Y-119200000D01*
X194414285Y-119228571D01*
X194357142Y-119314285D01*
X194328571Y-119428571D01*
X194328571Y-119657142D01*
X194357142Y-119714285D01*
X194385714Y-119742857D01*
X194442857Y-119771428D01*
X194557142Y-119771428D01*
X194614285Y-119742857D01*
X194642857Y-119714285D01*
X194671428Y-119657142D01*
X194671428Y-119514285D01*
X194642857Y-119457142D01*
X194614285Y-119428571D01*
X194557142Y-119400000D01*
X194442857Y-119400000D01*
X194385714Y-119428571D01*
X194357142Y-119457142D01*
X194328571Y-119514285D01*
X211542857Y-125821428D02*
X211885714Y-125821428D01*
X211714285Y-126421428D02*
X211714285Y-125821428D01*
X212085714Y-126421428D02*
X212085714Y-125821428D01*
X212314285Y-125821428D01*
X212371428Y-125850000D01*
X212400000Y-125878571D01*
X212428571Y-125935714D01*
X212428571Y-126021428D01*
X212400000Y-126078571D01*
X212371428Y-126107142D01*
X212314285Y-126135714D01*
X212085714Y-126135714D01*
X212971428Y-125821428D02*
X212685714Y-125821428D01*
X212657142Y-126107142D01*
X212685714Y-126078571D01*
X212742857Y-126050000D01*
X212885714Y-126050000D01*
X212942857Y-126078571D01*
X212971428Y-126107142D01*
X213000000Y-126164285D01*
X213000000Y-126307142D01*
X212971428Y-126364285D01*
X212942857Y-126392857D01*
X212885714Y-126421428D01*
X212742857Y-126421428D01*
X212685714Y-126392857D01*
X212657142Y-126364285D01*
X176007142Y-121546428D02*
X176007142Y-120946428D01*
X176150000Y-120946428D01*
X176235714Y-120975000D01*
X176292857Y-121032142D01*
X176321428Y-121089285D01*
X176350000Y-121203571D01*
X176350000Y-121289285D01*
X176321428Y-121403571D01*
X176292857Y-121460714D01*
X176235714Y-121517857D01*
X176150000Y-121546428D01*
X176007142Y-121546428D01*
X176921428Y-121546428D02*
X176578571Y-121546428D01*
X176750000Y-121546428D02*
X176750000Y-120946428D01*
X176692857Y-121032142D01*
X176635714Y-121089285D01*
X176578571Y-121117857D01*
X210650000Y-124821428D02*
X210450000Y-124535714D01*
X210307142Y-124821428D02*
X210307142Y-124221428D01*
X210535714Y-124221428D01*
X210592857Y-124250000D01*
X210621428Y-124278571D01*
X210650000Y-124335714D01*
X210650000Y-124421428D01*
X210621428Y-124478571D01*
X210592857Y-124507142D01*
X210535714Y-124535714D01*
X210307142Y-124535714D01*
X211164285Y-124421428D02*
X211164285Y-124821428D01*
X211021428Y-124192857D02*
X210878571Y-124621428D01*
X211250000Y-124621428D01*
X185500000Y-146871428D02*
X185500000Y-147300000D01*
X185471428Y-147385714D01*
X185414285Y-147442857D01*
X185328571Y-147471428D01*
X185271428Y-147471428D01*
X185728571Y-146871428D02*
X186100000Y-146871428D01*
X185900000Y-147100000D01*
X185985714Y-147100000D01*
X186042857Y-147128571D01*
X186071428Y-147157142D01*
X186100000Y-147214285D01*
X186100000Y-147357142D01*
X186071428Y-147414285D01*
X186042857Y-147442857D01*
X185985714Y-147471428D01*
X185814285Y-147471428D01*
X185757142Y-147442857D01*
X185728571Y-147414285D01*
X179200000Y-140621428D02*
X179000000Y-140335714D01*
X178857142Y-140621428D02*
X178857142Y-140021428D01*
X179085714Y-140021428D01*
X179142857Y-140050000D01*
X179171428Y-140078571D01*
X179200000Y-140135714D01*
X179200000Y-140221428D01*
X179171428Y-140278571D01*
X179142857Y-140307142D01*
X179085714Y-140335714D01*
X178857142Y-140335714D01*
X179485714Y-140621428D02*
X179600000Y-140621428D01*
X179657142Y-140592857D01*
X179685714Y-140564285D01*
X179742857Y-140478571D01*
X179771428Y-140364285D01*
X179771428Y-140135714D01*
X179742857Y-140078571D01*
X179714285Y-140050000D01*
X179657142Y-140021428D01*
X179542857Y-140021428D01*
X179485714Y-140050000D01*
X179457142Y-140078571D01*
X179428571Y-140135714D01*
X179428571Y-140278571D01*
X179457142Y-140335714D01*
X179485714Y-140364285D01*
X179542857Y-140392857D01*
X179657142Y-140392857D01*
X179714285Y-140364285D01*
X179742857Y-140335714D01*
X179771428Y-140278571D01*
X174225000Y-106858928D02*
X174225000Y-107287500D01*
X174196428Y-107373214D01*
X174139285Y-107430357D01*
X174053571Y-107458928D01*
X173996428Y-107458928D01*
X174825000Y-107458928D02*
X174482142Y-107458928D01*
X174653571Y-107458928D02*
X174653571Y-106858928D01*
X174596428Y-106944642D01*
X174539285Y-107001785D01*
X174482142Y-107030357D01*
X193492857Y-112246428D02*
X193835714Y-112246428D01*
X193664285Y-112846428D02*
X193664285Y-112246428D01*
X194035714Y-112846428D02*
X194035714Y-112246428D01*
X194264285Y-112246428D01*
X194321428Y-112275000D01*
X194350000Y-112303571D01*
X194378571Y-112360714D01*
X194378571Y-112446428D01*
X194350000Y-112503571D01*
X194321428Y-112532142D01*
X194264285Y-112560714D01*
X194035714Y-112560714D01*
X194607142Y-112303571D02*
X194635714Y-112275000D01*
X194692857Y-112246428D01*
X194835714Y-112246428D01*
X194892857Y-112275000D01*
X194921428Y-112303571D01*
X194950000Y-112360714D01*
X194950000Y-112417857D01*
X194921428Y-112503571D01*
X194578571Y-112846428D01*
X194950000Y-112846428D01*
X197139285Y-135171428D02*
X197139285Y-135600000D01*
X197110714Y-135685714D01*
X197053571Y-135742857D01*
X196967857Y-135771428D01*
X196910714Y-135771428D01*
X197739285Y-135771428D02*
X197396428Y-135771428D01*
X197567857Y-135771428D02*
X197567857Y-135171428D01*
X197510714Y-135257142D01*
X197453571Y-135314285D01*
X197396428Y-135342857D01*
X197967857Y-135228571D02*
X197996428Y-135200000D01*
X198053571Y-135171428D01*
X198196428Y-135171428D01*
X198253571Y-135200000D01*
X198282142Y-135228571D01*
X198310714Y-135285714D01*
X198310714Y-135342857D01*
X198282142Y-135428571D01*
X197939285Y-135771428D01*
X198310714Y-135771428D01*
X190400000Y-116314285D02*
X190371428Y-116342857D01*
X190285714Y-116371428D01*
X190228571Y-116371428D01*
X190142857Y-116342857D01*
X190085714Y-116285714D01*
X190057142Y-116228571D01*
X190028571Y-116114285D01*
X190028571Y-116028571D01*
X190057142Y-115914285D01*
X190085714Y-115857142D01*
X190142857Y-115800000D01*
X190228571Y-115771428D01*
X190285714Y-115771428D01*
X190371428Y-115800000D01*
X190400000Y-115828571D01*
X190942857Y-115771428D02*
X190657142Y-115771428D01*
X190628571Y-116057142D01*
X190657142Y-116028571D01*
X190714285Y-116000000D01*
X190857142Y-116000000D01*
X190914285Y-116028571D01*
X190942857Y-116057142D01*
X190971428Y-116114285D01*
X190971428Y-116257142D01*
X190942857Y-116314285D01*
X190914285Y-116342857D01*
X190857142Y-116371428D01*
X190714285Y-116371428D01*
X190657142Y-116342857D01*
X190628571Y-116314285D01*
X177775000Y-120232142D02*
X177575000Y-120232142D01*
X177575000Y-120546428D02*
X177575000Y-119946428D01*
X177860714Y-119946428D01*
X178289285Y-120232142D02*
X178375000Y-120260714D01*
X178403571Y-120289285D01*
X178432142Y-120346428D01*
X178432142Y-120432142D01*
X178403571Y-120489285D01*
X178375000Y-120517857D01*
X178317857Y-120546428D01*
X178089285Y-120546428D01*
X178089285Y-119946428D01*
X178289285Y-119946428D01*
X178346428Y-119975000D01*
X178375000Y-120003571D01*
X178403571Y-120060714D01*
X178403571Y-120117857D01*
X178375000Y-120175000D01*
X178346428Y-120203571D01*
X178289285Y-120232142D01*
X178089285Y-120232142D01*
X179003571Y-120546428D02*
X178660714Y-120546428D01*
X178832142Y-120546428D02*
X178832142Y-119946428D01*
X178775000Y-120032142D01*
X178717857Y-120089285D01*
X178660714Y-120117857D01*
X200849107Y-120235928D02*
X201191964Y-120235928D01*
X201020535Y-120835928D02*
X201020535Y-120235928D01*
X201391964Y-120835928D02*
X201391964Y-120235928D01*
X201620535Y-120235928D01*
X201677678Y-120264500D01*
X201706250Y-120293071D01*
X201734821Y-120350214D01*
X201734821Y-120435928D01*
X201706250Y-120493071D01*
X201677678Y-120521642D01*
X201620535Y-120550214D01*
X201391964Y-120550214D01*
X202249107Y-120435928D02*
X202249107Y-120835928D01*
X202106250Y-120207357D02*
X201963392Y-120635928D01*
X202334821Y-120635928D01*
X176789285Y-109064285D02*
X176760714Y-109092857D01*
X176675000Y-109121428D01*
X176617857Y-109121428D01*
X176532142Y-109092857D01*
X176475000Y-109035714D01*
X176446428Y-108978571D01*
X176417857Y-108864285D01*
X176417857Y-108778571D01*
X176446428Y-108664285D01*
X176475000Y-108607142D01*
X176532142Y-108550000D01*
X176617857Y-108521428D01*
X176675000Y-108521428D01*
X176760714Y-108550000D01*
X176789285Y-108578571D01*
X177360714Y-109121428D02*
X177017857Y-109121428D01*
X177189285Y-109121428D02*
X177189285Y-108521428D01*
X177132142Y-108607142D01*
X177075000Y-108664285D01*
X177017857Y-108692857D01*
X177703571Y-108778571D02*
X177646428Y-108750000D01*
X177617857Y-108721428D01*
X177589285Y-108664285D01*
X177589285Y-108635714D01*
X177617857Y-108578571D01*
X177646428Y-108550000D01*
X177703571Y-108521428D01*
X177817857Y-108521428D01*
X177875000Y-108550000D01*
X177903571Y-108578571D01*
X177932142Y-108635714D01*
X177932142Y-108664285D01*
X177903571Y-108721428D01*
X177875000Y-108750000D01*
X177817857Y-108778571D01*
X177703571Y-108778571D01*
X177646428Y-108807142D01*
X177617857Y-108835714D01*
X177589285Y-108892857D01*
X177589285Y-109007142D01*
X177617857Y-109064285D01*
X177646428Y-109092857D01*
X177703571Y-109121428D01*
X177817857Y-109121428D01*
X177875000Y-109092857D01*
X177903571Y-109064285D01*
X177932142Y-109007142D01*
X177932142Y-108892857D01*
X177903571Y-108835714D01*
X177875000Y-108807142D01*
X177817857Y-108778571D01*
X182400000Y-122914285D02*
X182371428Y-122942857D01*
X182285714Y-122971428D01*
X182228571Y-122971428D01*
X182142857Y-122942857D01*
X182085714Y-122885714D01*
X182057142Y-122828571D01*
X182028571Y-122714285D01*
X182028571Y-122628571D01*
X182057142Y-122514285D01*
X182085714Y-122457142D01*
X182142857Y-122400000D01*
X182228571Y-122371428D01*
X182285714Y-122371428D01*
X182371428Y-122400000D01*
X182400000Y-122428571D01*
X182628571Y-122428571D02*
X182657142Y-122400000D01*
X182714285Y-122371428D01*
X182857142Y-122371428D01*
X182914285Y-122400000D01*
X182942857Y-122428571D01*
X182971428Y-122485714D01*
X182971428Y-122542857D01*
X182942857Y-122628571D01*
X182600000Y-122971428D01*
X182971428Y-122971428D01*
X210664285Y-122871428D02*
X210464285Y-122585714D01*
X210321428Y-122871428D02*
X210321428Y-122271428D01*
X210550000Y-122271428D01*
X210607142Y-122300000D01*
X210635714Y-122328571D01*
X210664285Y-122385714D01*
X210664285Y-122471428D01*
X210635714Y-122528571D01*
X210607142Y-122557142D01*
X210550000Y-122585714D01*
X210321428Y-122585714D01*
X211235714Y-122871428D02*
X210892857Y-122871428D01*
X211064285Y-122871428D02*
X211064285Y-122271428D01*
X211007142Y-122357142D01*
X210950000Y-122414285D01*
X210892857Y-122442857D01*
X211750000Y-122471428D02*
X211750000Y-122871428D01*
X211607142Y-122242857D02*
X211464285Y-122671428D01*
X211835714Y-122671428D01*
X189789285Y-135171428D02*
X189789285Y-135600000D01*
X189760714Y-135685714D01*
X189703571Y-135742857D01*
X189617857Y-135771428D01*
X189560714Y-135771428D01*
X190389285Y-135771428D02*
X190046428Y-135771428D01*
X190217857Y-135771428D02*
X190217857Y-135171428D01*
X190160714Y-135257142D01*
X190103571Y-135314285D01*
X190046428Y-135342857D01*
X190760714Y-135171428D02*
X190817857Y-135171428D01*
X190875000Y-135200000D01*
X190903571Y-135228571D01*
X190932142Y-135285714D01*
X190960714Y-135400000D01*
X190960714Y-135542857D01*
X190932142Y-135657142D01*
X190903571Y-135714285D01*
X190875000Y-135742857D01*
X190817857Y-135771428D01*
X190760714Y-135771428D01*
X190703571Y-135742857D01*
X190675000Y-135714285D01*
X190646428Y-135657142D01*
X190617857Y-135542857D01*
X190617857Y-135400000D01*
X190646428Y-135285714D01*
X190675000Y-135228571D01*
X190703571Y-135200000D01*
X190760714Y-135171428D01*
X201189285Y-147121428D02*
X200989285Y-146835714D01*
X200846428Y-147121428D02*
X200846428Y-146521428D01*
X201075000Y-146521428D01*
X201132142Y-146550000D01*
X201160714Y-146578571D01*
X201189285Y-146635714D01*
X201189285Y-146721428D01*
X201160714Y-146778571D01*
X201132142Y-146807142D01*
X201075000Y-146835714D01*
X200846428Y-146835714D01*
X201760714Y-147121428D02*
X201417857Y-147121428D01*
X201589285Y-147121428D02*
X201589285Y-146521428D01*
X201532142Y-146607142D01*
X201475000Y-146664285D01*
X201417857Y-146692857D01*
X202303571Y-146521428D02*
X202017857Y-146521428D01*
X201989285Y-146807142D01*
X202017857Y-146778571D01*
X202075000Y-146750000D01*
X202217857Y-146750000D01*
X202275000Y-146778571D01*
X202303571Y-146807142D01*
X202332142Y-146864285D01*
X202332142Y-147007142D01*
X202303571Y-147064285D01*
X202275000Y-147092857D01*
X202217857Y-147121428D01*
X202075000Y-147121428D01*
X202017857Y-147092857D01*
X201989285Y-147064285D01*
X193430607Y-114378928D02*
X193773464Y-114378928D01*
X193602035Y-114978928D02*
X193602035Y-114378928D01*
X193973464Y-114978928D02*
X193973464Y-114378928D01*
X194202035Y-114378928D01*
X194259178Y-114407500D01*
X194287750Y-114436071D01*
X194316321Y-114493214D01*
X194316321Y-114578928D01*
X194287750Y-114636071D01*
X194259178Y-114664642D01*
X194202035Y-114693214D01*
X193973464Y-114693214D01*
X194887750Y-114978928D02*
X194544892Y-114978928D01*
X194716321Y-114978928D02*
X194716321Y-114378928D01*
X194659178Y-114464642D01*
X194602035Y-114521785D01*
X194544892Y-114550357D01*
X185229285Y-129114285D02*
X185200714Y-129142857D01*
X185115000Y-129171428D01*
X185057857Y-129171428D01*
X184972142Y-129142857D01*
X184915000Y-129085714D01*
X184886428Y-129028571D01*
X184857857Y-128914285D01*
X184857857Y-128828571D01*
X184886428Y-128714285D01*
X184915000Y-128657142D01*
X184972142Y-128600000D01*
X185057857Y-128571428D01*
X185115000Y-128571428D01*
X185200714Y-128600000D01*
X185229285Y-128628571D01*
X185800714Y-129171428D02*
X185457857Y-129171428D01*
X185629285Y-129171428D02*
X185629285Y-128571428D01*
X185572142Y-128657142D01*
X185515000Y-128714285D01*
X185457857Y-128742857D01*
X186315000Y-128571428D02*
X186200714Y-128571428D01*
X186143571Y-128600000D01*
X186115000Y-128628571D01*
X186057857Y-128714285D01*
X186029285Y-128828571D01*
X186029285Y-129057142D01*
X186057857Y-129114285D01*
X186086428Y-129142857D01*
X186143571Y-129171428D01*
X186257857Y-129171428D01*
X186315000Y-129142857D01*
X186343571Y-129114285D01*
X186372142Y-129057142D01*
X186372142Y-128914285D01*
X186343571Y-128857142D01*
X186315000Y-128828571D01*
X186257857Y-128800000D01*
X186143571Y-128800000D01*
X186086428Y-128828571D01*
X186057857Y-128857142D01*
X186029285Y-128914285D01*
X210650000Y-128471428D02*
X210450000Y-128185714D01*
X210307142Y-128471428D02*
X210307142Y-127871428D01*
X210535714Y-127871428D01*
X210592857Y-127900000D01*
X210621428Y-127928571D01*
X210650000Y-127985714D01*
X210650000Y-128071428D01*
X210621428Y-128128571D01*
X210592857Y-128157142D01*
X210535714Y-128185714D01*
X210307142Y-128185714D01*
X210850000Y-127871428D02*
X211221428Y-127871428D01*
X211021428Y-128100000D01*
X211107142Y-128100000D01*
X211164285Y-128128571D01*
X211192857Y-128157142D01*
X211221428Y-128214285D01*
X211221428Y-128357142D01*
X211192857Y-128414285D01*
X211164285Y-128442857D01*
X211107142Y-128471428D01*
X210935714Y-128471428D01*
X210878571Y-128442857D01*
X210850000Y-128414285D01*
X203575000Y-119189285D02*
X203546428Y-119217857D01*
X203460714Y-119246428D01*
X203403571Y-119246428D01*
X203317857Y-119217857D01*
X203260714Y-119160714D01*
X203232142Y-119103571D01*
X203203571Y-118989285D01*
X203203571Y-118903571D01*
X203232142Y-118789285D01*
X203260714Y-118732142D01*
X203317857Y-118675000D01*
X203403571Y-118646428D01*
X203460714Y-118646428D01*
X203546428Y-118675000D01*
X203575000Y-118703571D01*
X203775000Y-118646428D02*
X204175000Y-118646428D01*
X203917857Y-119246428D01*
D11*
X193820000Y-111630000D02*
X196420000Y-111630000D01*
X193820000Y-108970000D02*
X196420000Y-108970000D01*
X196420000Y-111630000D02*
X196420000Y-108970000D01*
X193820000Y-111630000D02*
X193820000Y-108970000D01*
X192550000Y-111630000D02*
X191220000Y-111630000D01*
X191220000Y-111630000D02*
X191220000Y-110300000D01*
X200252500Y-115637258D02*
X200252500Y-115162742D01*
X201297500Y-115637258D02*
X201297500Y-115162742D01*
X174746359Y-128120000D02*
X175053641Y-128120000D01*
X174746359Y-128880000D02*
X175053641Y-128880000D01*
X185910000Y-119288748D02*
X185910000Y-120711252D01*
X184090000Y-119288748D02*
X184090000Y-120711252D01*
X174830000Y-121121359D02*
X174830000Y-121428641D01*
X174070000Y-121121359D02*
X174070000Y-121428641D01*
X191590000Y-118038748D02*
X191590000Y-119461252D01*
X193410000Y-118038748D02*
X193410000Y-119461252D01*
D12*
X177940000Y-128500000D02*
G75*
G03*
X177940000Y-128500000I-50000J0D01*
G01*
D11*
X194325000Y-145653641D02*
X194325000Y-145346359D01*
X193565000Y-145653641D02*
X193565000Y-145346359D01*
X177250000Y-135150000D02*
G75*
G03*
X177250000Y-135150000I-500000J0D01*
G01*
X209768000Y-131680000D02*
X209768000Y-129020000D01*
X203358000Y-131680000D02*
X202028000Y-131680000D01*
X202028000Y-131680000D02*
X202028000Y-130350000D01*
X204628000Y-129020000D02*
X209768000Y-129020000D01*
X204628000Y-131680000D02*
X209768000Y-131680000D01*
X204628000Y-131680000D02*
X204628000Y-129020000D01*
X190535000Y-109340000D02*
X188185000Y-109340000D01*
X189470563Y-116160000D02*
X188185000Y-116160000D01*
X183715000Y-115095563D02*
X183715000Y-109340000D01*
X184883750Y-116793750D02*
X185671250Y-116793750D01*
X190535000Y-115095563D02*
X190535000Y-109340000D01*
X189470563Y-116160000D02*
X190535000Y-115095563D01*
X183715000Y-109340000D02*
X186065000Y-109340000D01*
X184779437Y-116160000D02*
X186065000Y-116160000D01*
X185277500Y-117187500D02*
X185277500Y-116400000D01*
X184779437Y-116160000D02*
X183715000Y-115095563D01*
X196245000Y-114778641D02*
X196245000Y-114471359D01*
X197005000Y-114778641D02*
X197005000Y-114471359D01*
X189882000Y-145653641D02*
X189882000Y-145346359D01*
X190642000Y-145653641D02*
X190642000Y-145346359D01*
X192615000Y-137650000D02*
X192615000Y-136320000D01*
X192615000Y-138920000D02*
X195275000Y-138920000D01*
X192615000Y-138920000D02*
X192615000Y-144060000D01*
X195275000Y-138920000D02*
X195275000Y-144060000D01*
X192615000Y-136320000D02*
X193945000Y-136320000D01*
X192615000Y-144060000D02*
X195275000Y-144060000D01*
X211353641Y-133055000D02*
X211046359Y-133055000D01*
X211353641Y-132295000D02*
X211046359Y-132295000D01*
X179615000Y-132261252D02*
X179615000Y-130838748D01*
X181435000Y-132261252D02*
X181435000Y-130838748D01*
X195969000Y-114732836D02*
X195969000Y-114517164D01*
X195249000Y-114732836D02*
X195249000Y-114517164D01*
X175395000Y-140207359D02*
X175395000Y-140514641D01*
X176155000Y-140207359D02*
X176155000Y-140514641D01*
X205697500Y-119937258D02*
X205697500Y-119462742D01*
X204652500Y-119937258D02*
X204652500Y-119462742D01*
X203358000Y-135330000D02*
X202028000Y-135330000D01*
X209768000Y-135330000D02*
X209768000Y-132670000D01*
X204628000Y-135330000D02*
X204628000Y-132670000D01*
X202028000Y-135330000D02*
X202028000Y-134000000D01*
X204628000Y-135330000D02*
X209768000Y-135330000D01*
X204628000Y-132670000D02*
X209768000Y-132670000D01*
X183975000Y-132261252D02*
X183975000Y-130838748D01*
X182155000Y-132261252D02*
X182155000Y-130838748D01*
D13*
X199643500Y-121217500D02*
X188856500Y-121217500D01*
X188856500Y-121217500D02*
X188856500Y-134282500D01*
X188856500Y-134282500D02*
X199643500Y-134282500D01*
X199643500Y-134282500D02*
X199643500Y-121217500D01*
D11*
X180475000Y-140207359D02*
X180475000Y-140514641D01*
X181235000Y-140207359D02*
X181235000Y-140514641D01*
X209768000Y-124380000D02*
X209768000Y-121720000D01*
X204628000Y-124380000D02*
X204628000Y-121720000D01*
X204628000Y-121720000D02*
X209768000Y-121720000D01*
X204628000Y-124380000D02*
X209768000Y-124380000D01*
X202028000Y-124380000D02*
X202028000Y-123050000D01*
X203358000Y-124380000D02*
X202028000Y-124380000D01*
X182155000Y-136338748D02*
X182155000Y-137761252D01*
X183975000Y-136338748D02*
X183975000Y-137761252D01*
X197248000Y-145653641D02*
X197248000Y-145346359D01*
X198008000Y-145653641D02*
X198008000Y-145346359D01*
X186590000Y-119288748D02*
X186590000Y-120711252D01*
X188410000Y-119288748D02*
X188410000Y-120711252D01*
X199981000Y-137650000D02*
X199981000Y-136320000D01*
X199981000Y-138920000D02*
X199981000Y-144060000D01*
X199981000Y-136320000D02*
X201311000Y-136320000D01*
X202641000Y-138920000D02*
X202641000Y-144060000D01*
X199981000Y-138920000D02*
X202641000Y-138920000D01*
X199981000Y-144060000D02*
X202641000Y-144060000D01*
X191997500Y-113887258D02*
X191997500Y-113412742D01*
X190952500Y-113887258D02*
X190952500Y-113412742D01*
X183775000Y-140207359D02*
X183775000Y-140514641D01*
X183015000Y-140207359D02*
X183015000Y-140514641D01*
X175985000Y-118411252D02*
X175985000Y-116988748D01*
X174165000Y-118411252D02*
X174165000Y-116988748D01*
X205000000Y-117700000D02*
G75*
G03*
X205000000Y-117700000I-500000J0D01*
G01*
X203358000Y-128030000D02*
X202028000Y-128030000D01*
X202028000Y-128030000D02*
X202028000Y-126700000D01*
X204628000Y-128030000D02*
X209768000Y-128030000D01*
X204628000Y-128030000D02*
X204628000Y-125370000D01*
X204628000Y-125370000D02*
X209768000Y-125370000D01*
X209768000Y-128030000D02*
X209768000Y-125370000D01*
X184695000Y-136338748D02*
X184695000Y-137761252D01*
X186515000Y-136338748D02*
X186515000Y-137761252D01*
X186100800Y-145112164D02*
X186100800Y-145327836D01*
X185380800Y-145112164D02*
X185380800Y-145327836D01*
X211645000Y-120730000D02*
X211645000Y-118070000D01*
X209045000Y-120730000D02*
X211645000Y-120730000D01*
X209045000Y-118070000D02*
X211645000Y-118070000D01*
X209045000Y-120730000D02*
X209045000Y-118070000D01*
X206445000Y-120730000D02*
X206445000Y-119400000D01*
X207775000Y-120730000D02*
X206445000Y-120730000D01*
X187815600Y-145700000D02*
G75*
G03*
X187815600Y-145700000I-500000J0D01*
G01*
X181435000Y-136338748D02*
X181435000Y-137761252D01*
X179615000Y-136338748D02*
X179615000Y-137761252D01*
X188157000Y-134965420D02*
X188157000Y-135246580D01*
X187137000Y-134965420D02*
X187137000Y-135246580D01*
D14*
X173662500Y-147250000D02*
X164662500Y-147250000D01*
X173662500Y-127250000D02*
X173662500Y-147250000D01*
X164662500Y-127250000D02*
X173662500Y-127250000D01*
X164662500Y-147250000D02*
X164662500Y-127250000D01*
D15*
X163762500Y-129750000D02*
G75*
G03*
X163762500Y-129750000I-100000J0D01*
G01*
D11*
X199963000Y-115637500D02*
X194812500Y-115637500D01*
X199963000Y-120735000D02*
X199963000Y-115637500D01*
X194812500Y-115637500D02*
X194812500Y-120735000D01*
X194812500Y-120735000D02*
X199963000Y-120735000D01*
D15*
X194662500Y-115387500D02*
G75*
G03*
X194662500Y-115387500I-100000J0D01*
G01*
D11*
X201384420Y-117165000D02*
X201665580Y-117165000D01*
X201384420Y-118185000D02*
X201665580Y-118185000D01*
X203800000Y-145025000D02*
G75*
G03*
X203800000Y-145025000I-500000J0D01*
G01*
X194547750Y-118079664D02*
X194547750Y-118295336D01*
X193827750Y-118079664D02*
X193827750Y-118295336D01*
X212210000Y-127025000D02*
G75*
G03*
X212210000Y-127025000I-500000J0D01*
G01*
D12*
X175500000Y-120185000D02*
G75*
G03*
X175500000Y-120185000I-50000J0D01*
G01*
D11*
X211353641Y-124995000D02*
X211046359Y-124995000D01*
X211353641Y-125755000D02*
X211046359Y-125755000D01*
X177055000Y-147030000D02*
X177055000Y-144430000D01*
X177055000Y-144430000D02*
X174455000Y-144430000D01*
X174455000Y-147030000D02*
X174455000Y-145700000D01*
X177055000Y-147030000D02*
X184735000Y-147030000D01*
X174455000Y-144430000D02*
X174455000Y-141830000D01*
X175785000Y-147030000D02*
X174455000Y-147030000D01*
X174455000Y-141830000D02*
X184735000Y-141830000D01*
X184735000Y-147030000D02*
X184735000Y-141830000D01*
X177935000Y-140207359D02*
X177935000Y-140514641D01*
X178695000Y-140207359D02*
X178695000Y-140514641D01*
D14*
X173662500Y-107100000D02*
X173662500Y-127100000D01*
X173662500Y-127100000D02*
X164662500Y-127100000D01*
X164662500Y-107100000D02*
X173662500Y-107100000D01*
X164662500Y-127100000D02*
X164662500Y-107100000D01*
D15*
X163762500Y-109600000D02*
G75*
G03*
X163762500Y-109600000I-100000J0D01*
G01*
D11*
X193225000Y-112575000D02*
G75*
G03*
X193225000Y-112575000I-500000J0D01*
G01*
X196298000Y-138920000D02*
X198958000Y-138920000D01*
X198958000Y-138920000D02*
X198958000Y-144060000D01*
X196298000Y-138920000D02*
X196298000Y-144060000D01*
X196298000Y-136320000D02*
X197628000Y-136320000D01*
X196298000Y-144060000D02*
X198958000Y-144060000D01*
X196298000Y-137650000D02*
X196298000Y-136320000D01*
X190910000Y-118038748D02*
X190910000Y-119461252D01*
X189090000Y-118038748D02*
X189090000Y-119461252D01*
X177814758Y-119710000D02*
X179485242Y-119710000D01*
X177814758Y-117890000D02*
X179485242Y-117890000D01*
X200700000Y-120900000D02*
G75*
G03*
X200700000Y-120900000I-500000J0D01*
G01*
X182295563Y-116160000D02*
X181010000Y-116160000D01*
X176540000Y-109340000D02*
X178890000Y-109340000D01*
X177708750Y-116793750D02*
X178496250Y-116793750D01*
X183360000Y-115095563D02*
X183360000Y-109340000D01*
X177604437Y-116160000D02*
X176540000Y-115095563D01*
X178102500Y-117187500D02*
X178102500Y-116400000D01*
X183360000Y-109340000D02*
X181010000Y-109340000D01*
X177604437Y-116160000D02*
X178890000Y-116160000D01*
X182295563Y-116160000D02*
X183360000Y-115095563D01*
X176540000Y-115095563D02*
X176540000Y-109340000D01*
X181590000Y-119288748D02*
X181590000Y-120711252D01*
X183410000Y-119288748D02*
X183410000Y-120711252D01*
X211353641Y-122105000D02*
X211046359Y-122105000D01*
X211353641Y-121345000D02*
X211046359Y-121345000D01*
X191592000Y-138920000D02*
X191592000Y-144060000D01*
X188932000Y-137650000D02*
X188932000Y-136320000D01*
X188932000Y-136320000D02*
X190262000Y-136320000D01*
X188932000Y-144060000D02*
X191592000Y-144060000D01*
X188932000Y-138920000D02*
X188932000Y-144060000D01*
X188932000Y-138920000D02*
X191592000Y-138920000D01*
X201691000Y-145653641D02*
X201691000Y-145346359D01*
X200931000Y-145653641D02*
X200931000Y-145346359D01*
X194687750Y-116155500D02*
G75*
G03*
X194687750Y-116155500I-500000J0D01*
G01*
X184695000Y-132261252D02*
X184695000Y-130838748D01*
X186515000Y-132261252D02*
X186515000Y-130838748D01*
X211353641Y-128645000D02*
X211046359Y-128645000D01*
X211353641Y-129405000D02*
X211046359Y-129405000D01*
X201540170Y-119960000D02*
X201821330Y-119960000D01*
X201540170Y-118940000D02*
X201821330Y-118940000D01*
%LPC*%
D16*
X199400000Y-106100000D02*
X205400000Y-106100000D01*
X205400000Y-106100000D02*
X205400000Y-108500000D01*
X205400000Y-108500000D02*
X199400000Y-108500000D01*
X199400000Y-108500000D02*
X199400000Y-106100000D01*
D17*
X198237500Y-120035000D02*
X195887500Y-120035000D01*
X195887500Y-120035000D02*
X195887500Y-119760000D01*
X195887500Y-119760000D02*
X198237500Y-119760000D01*
X198237500Y-119760000D02*
X198237500Y-120035000D01*
G36*
X198237500Y-120035000D02*
G01*
X195887500Y-120035000D01*
X195887500Y-119760000D01*
X198237500Y-119760000D01*
X198237500Y-120035000D01*
G37*
X198237500Y-120035000D02*
X195887500Y-120035000D01*
X195887500Y-119760000D01*
X198237500Y-119760000D01*
X198237500Y-120035000D01*
X198437500Y-118715000D02*
X197787500Y-118715000D01*
X197787500Y-118715000D02*
X197787500Y-119460000D01*
X197787500Y-119460000D02*
X195612500Y-119460000D01*
X195612500Y-119460000D02*
X195612500Y-118260000D01*
X195612500Y-118260000D02*
X198437500Y-118260000D01*
X198437500Y-118260000D02*
X198437500Y-118715000D01*
G36*
X198437500Y-118715000D02*
G01*
X197787500Y-118715000D01*
X197787500Y-119460000D01*
X195612500Y-119460000D01*
X195612500Y-118260000D01*
X198437500Y-118260000D01*
X198437500Y-118715000D01*
G37*
X198437500Y-118715000D02*
X197787500Y-118715000D01*
X197787500Y-119460000D01*
X195612500Y-119460000D01*
X195612500Y-118260000D01*
X198437500Y-118260000D01*
X198437500Y-118715000D01*
D18*
X192550000Y-110300000D03*
D19*
X195090000Y-110300000D03*
D20*
X200775000Y-116225000D03*
X200775000Y-114575000D03*
D21*
X174390000Y-128500000D03*
X175410000Y-128500000D03*
D22*
X185000000Y-118525000D03*
X185000000Y-121475000D03*
D23*
X174450000Y-120765000D03*
X174450000Y-121785000D03*
D22*
X192500000Y-117275000D03*
X192500000Y-120225000D03*
D24*
X208100000Y-111400000D03*
D25*
X177285000Y-128500000D03*
X176315000Y-128500000D03*
D26*
X193945000Y-146010000D03*
X193945000Y-144990000D03*
D27*
X176750000Y-135150000D03*
D18*
X203358000Y-130350000D03*
D19*
X205898000Y-130350000D03*
X208438000Y-130350000D03*
D28*
X187125000Y-115450000D03*
X187125000Y-110050000D03*
D26*
X196625000Y-115135000D03*
X196625000Y-114115000D03*
X190262000Y-146010000D03*
X190262000Y-144990000D03*
D18*
X193945000Y-137650000D03*
D19*
X193945000Y-140190000D03*
X193945000Y-142730000D03*
D29*
X211710000Y-132675000D03*
X210690000Y-132675000D03*
D30*
X204800000Y-139300000D03*
D31*
X180525000Y-133025000D03*
X180525000Y-130075000D03*
D32*
X195609000Y-115105000D03*
X195609000Y-114145000D03*
D23*
X175775000Y-139851000D03*
X175775000Y-140871000D03*
D20*
X205175000Y-120525000D03*
X205175000Y-118875000D03*
D18*
X203358000Y-134000000D03*
D19*
X205898000Y-134000000D03*
X208438000Y-134000000D03*
D31*
X183065000Y-133025000D03*
X183065000Y-130075000D03*
D33*
X194250000Y-123279500D03*
X194250000Y-132220500D03*
D23*
X180855000Y-139851000D03*
X180855000Y-140871000D03*
D18*
X203358000Y-123050000D03*
D19*
X205898000Y-123050000D03*
X208438000Y-123050000D03*
D22*
X183065000Y-135575000D03*
X183065000Y-138525000D03*
D26*
X197628000Y-146010000D03*
X197628000Y-144990000D03*
D22*
X187500000Y-118525000D03*
X187500000Y-121475000D03*
D18*
X201311000Y-137650000D03*
D19*
X201311000Y-140190000D03*
X201311000Y-142730000D03*
D20*
X191475000Y-114475000D03*
X191475000Y-112825000D03*
D23*
X183395000Y-139851000D03*
X183395000Y-140871000D03*
D31*
X175075000Y-119175000D03*
X175075000Y-116225000D03*
D27*
X204500000Y-117700000D03*
D18*
X203358000Y-126700000D03*
D19*
X205898000Y-126700000D03*
X208438000Y-126700000D03*
D22*
X185605000Y-135575000D03*
X185605000Y-138525000D03*
D34*
X185740800Y-144740000D03*
X185740800Y-145700000D03*
D18*
X207775000Y-119400000D03*
D19*
X210315000Y-119400000D03*
D27*
X187315600Y-145700000D03*
D30*
X204800000Y-114700000D03*
D22*
X180525000Y-135575000D03*
X180525000Y-138525000D03*
D35*
X187647000Y-134331000D03*
X187647000Y-135881000D03*
D36*
X168662500Y-129750000D03*
D37*
X168662500Y-134750000D03*
X168662500Y-139750000D03*
X168662500Y-144750000D03*
D38*
X195337500Y-117360000D03*
X195337500Y-117810000D03*
X195337500Y-118710000D03*
X195337500Y-119160000D03*
D39*
X196037500Y-120122500D03*
D40*
X196487500Y-120122500D03*
X196937500Y-120122500D03*
X197637500Y-120122500D03*
X198087500Y-120122500D03*
D41*
X198537500Y-120122500D03*
D42*
X199300500Y-119612500D03*
X199300500Y-119162500D03*
X199300500Y-118712500D03*
X199300500Y-118262500D03*
X199300500Y-117812500D03*
X199300500Y-117362500D03*
X199300500Y-116912500D03*
D40*
X198837500Y-116250000D03*
X198387500Y-116250000D03*
X197937500Y-116250000D03*
X197487500Y-116250000D03*
X196787500Y-116250000D03*
X196337500Y-116250000D03*
X195887500Y-116250000D03*
D43*
X198012500Y-117410000D03*
D44*
X196212500Y-117410000D03*
D45*
X196812500Y-118810000D03*
D46*
X198347500Y-119177500D03*
D47*
X200750000Y-117675000D03*
X202300000Y-117675000D03*
D24*
X178600000Y-124500000D03*
D27*
X203300000Y-145025000D03*
D34*
X194187750Y-117707500D03*
X194187750Y-118667500D03*
D27*
X211710000Y-127025000D03*
D48*
X175450000Y-120790000D03*
X175450000Y-121760000D03*
D30*
X178675000Y-129050000D03*
D29*
X211710000Y-125375000D03*
X210690000Y-125375000D03*
D18*
X175785000Y-145700000D03*
D19*
X175785000Y-143160000D03*
X178325000Y-145700000D03*
X178325000Y-143160000D03*
X180865000Y-145700000D03*
X180865000Y-143160000D03*
X183405000Y-145700000D03*
X183405000Y-143160000D03*
D23*
X178315000Y-139851000D03*
X178315000Y-140871000D03*
D36*
X168662500Y-109600000D03*
D37*
X168662500Y-114600000D03*
X168662500Y-119600000D03*
X168662500Y-124600000D03*
D27*
X192725000Y-112575000D03*
D18*
X197628000Y-137650000D03*
D19*
X197628000Y-140190000D03*
X197628000Y-142730000D03*
D22*
X190000000Y-117275000D03*
X190000000Y-120225000D03*
D49*
X177075000Y-118800000D03*
X180225000Y-118800000D03*
D27*
X200200000Y-120900000D03*
D28*
X179950000Y-115450000D03*
X179950000Y-110050000D03*
D22*
X182500000Y-118525000D03*
X182500000Y-121475000D03*
D29*
X211710000Y-121725000D03*
X210690000Y-121725000D03*
D18*
X190262000Y-137650000D03*
D19*
X190262000Y-140190000D03*
X190262000Y-142730000D03*
D26*
X201311000Y-146010000D03*
X201311000Y-144990000D03*
D27*
X194187750Y-116155500D03*
D31*
X185605000Y-133025000D03*
X185605000Y-130075000D03*
D29*
X211710000Y-129025000D03*
X210690000Y-129025000D03*
D24*
X208100000Y-142650000D03*
D47*
X200905750Y-119450000D03*
X202455750Y-119450000D03*
D50*
X165000000Y-124150000D03*
X183000000Y-106900000D03*
X196950000Y-119200000D03*
X178100000Y-128200000D03*
X165000000Y-109400000D03*
X172500000Y-144900000D03*
X199100000Y-121700000D03*
X184000000Y-147400000D03*
D51*
X188500000Y-124500000D03*
D50*
X193000000Y-145200000D03*
X213000000Y-122400000D03*
X178200000Y-129800000D03*
X197400000Y-114000000D03*
X196000000Y-138400000D03*
X204500000Y-109400000D03*
D51*
X192000000Y-129000000D03*
D50*
X213000000Y-126900000D03*
X180800000Y-128800000D03*
X203382550Y-119500000D03*
X175800000Y-127200000D03*
D51*
X190000000Y-129000000D03*
D50*
X193000000Y-147450000D03*
X206000000Y-106800000D03*
X203500000Y-136400000D03*
X196000000Y-136000000D03*
X199825000Y-114575000D03*
X212600000Y-113400000D03*
X187500000Y-106900000D03*
X210800000Y-130800000D03*
D51*
X196000000Y-129000000D03*
D50*
X188000000Y-129800000D03*
X176500000Y-137400000D03*
X186800000Y-128800000D03*
D51*
X185500000Y-124500000D03*
D50*
X192400000Y-113300000D03*
X204500000Y-112400000D03*
X177000000Y-140900000D03*
D51*
X182500000Y-126000000D03*
D50*
X166500000Y-107400000D03*
X210500000Y-106900000D03*
X192000000Y-106900000D03*
D51*
X194000000Y-129000000D03*
D50*
X175000000Y-147400000D03*
X198000000Y-118500000D03*
X183000000Y-109400000D03*
X211000000Y-133800000D03*
X169500000Y-112400000D03*
D51*
X187000000Y-123000000D03*
D50*
X173000000Y-124150000D03*
X199000000Y-106900000D03*
X183000000Y-112400000D03*
X206400000Y-120000000D03*
X169500000Y-106900000D03*
X204500000Y-121400000D03*
X165000000Y-112400000D03*
X178400000Y-120800000D03*
X197500000Y-147450000D03*
X187500000Y-144900000D03*
D51*
X185500000Y-123000000D03*
D50*
X199000000Y-112400000D03*
X202700000Y-121700000D03*
D51*
X198000000Y-129000000D03*
D50*
X165000000Y-126600000D03*
X208200000Y-137200000D03*
X204200000Y-141800000D03*
D51*
X187000000Y-124500000D03*
D50*
X169000000Y-126600000D03*
X200200000Y-145200000D03*
X213000000Y-135900000D03*
D51*
X190000000Y-127000000D03*
D50*
X194800000Y-145200000D03*
X169000000Y-121900000D03*
X169000000Y-137400000D03*
X202300000Y-116800000D03*
X188500000Y-147450000D03*
D51*
X182500000Y-123000000D03*
X184000000Y-124500000D03*
D50*
X211000000Y-127000000D03*
D51*
X198000000Y-127000000D03*
D50*
X202000000Y-147450000D03*
X183200000Y-128400000D03*
X187500000Y-112400000D03*
X184800000Y-144400000D03*
D51*
X196000000Y-127000000D03*
D50*
X182000000Y-140900000D03*
X202500000Y-124800000D03*
X196950000Y-118500000D03*
D51*
X184000000Y-127500000D03*
D50*
X213000000Y-140400000D03*
X202500000Y-132200000D03*
X165000000Y-121900000D03*
X199521750Y-116155500D03*
X199500000Y-138400000D03*
D51*
X187000000Y-126000000D03*
D50*
X199500000Y-136000000D03*
X213000000Y-117900000D03*
X199000000Y-145200000D03*
X211200000Y-120900000D03*
D51*
X188500000Y-123000000D03*
D50*
X165000000Y-137400000D03*
X204400000Y-119600000D03*
X174000000Y-109400000D03*
D51*
X184000000Y-126000000D03*
X182500000Y-127500000D03*
D50*
X196000000Y-118500000D03*
X213000000Y-144900000D03*
X210500000Y-116900000D03*
D51*
X185500000Y-127500000D03*
D50*
X166000000Y-147400000D03*
X189500000Y-145600000D03*
X199000000Y-109400000D03*
X174000000Y-106900000D03*
D51*
X187000000Y-127500000D03*
D50*
X187500000Y-142400000D03*
X173000000Y-121900000D03*
X187500000Y-138400000D03*
X174000000Y-112400000D03*
X196500000Y-109400000D03*
X191200000Y-145200000D03*
X182000000Y-144400000D03*
X198000000Y-117400000D03*
D51*
X182500000Y-124500000D03*
D50*
X204000000Y-114400000D03*
X205500000Y-124600000D03*
X170500000Y-147400000D03*
X202000000Y-114400000D03*
D51*
X185500000Y-126000000D03*
D50*
X204400000Y-138400000D03*
X175000000Y-137400000D03*
X169000000Y-141900000D03*
X206500000Y-147450000D03*
X201300000Y-120300000D03*
X202200000Y-145200000D03*
X196500000Y-112400000D03*
X213000000Y-131400000D03*
X178500000Y-112400000D03*
X178000000Y-117000000D03*
X211000000Y-147450000D03*
D51*
X184000000Y-123000000D03*
X192000000Y-127000000D03*
D50*
X196000000Y-119200000D03*
X207000000Y-116900000D03*
D51*
X188500000Y-127500000D03*
D50*
X205500000Y-132000000D03*
X175000000Y-141900000D03*
X184600000Y-140900000D03*
D51*
X188500000Y-126000000D03*
D50*
X173000000Y-126600000D03*
X202000000Y-109400000D03*
X179600000Y-140900000D03*
X201600000Y-116800000D03*
X165000000Y-146400000D03*
X191500000Y-111650000D03*
X202600000Y-135400000D03*
X196500000Y-106900000D03*
X192000000Y-135900000D03*
X177000000Y-144400000D03*
X202500000Y-128400000D03*
X202000000Y-112400000D03*
X172500000Y-139900000D03*
X205500000Y-128200000D03*
D51*
X194000000Y-127000000D03*
X181000000Y-127500000D03*
D50*
X196800000Y-145200000D03*
X188600000Y-135900000D03*
X178500000Y-109400000D03*
X210800000Y-123200000D03*
X194800000Y-114400000D03*
X192000000Y-138400000D03*
X178500000Y-106900000D03*
X174400000Y-117000000D03*
X165000000Y-141900000D03*
X179500000Y-147400000D03*
X212500000Y-108900000D03*
X179585000Y-144425000D03*
X199050000Y-114950000D03*
D51*
X192000000Y-115500000D03*
X189600000Y-114500000D03*
X191200000Y-118300000D03*
X193500000Y-115500000D03*
X182050000Y-115450000D03*
X183800000Y-119500000D03*
X182000000Y-114000000D03*
X192600000Y-114500000D03*
X183500000Y-114000000D03*
X194800000Y-115700000D03*
X185050000Y-115450000D03*
X183550000Y-115450000D03*
X190500000Y-115500000D03*
X183500000Y-117000000D03*
X185000000Y-117000000D03*
X182000000Y-117000000D03*
X185000000Y-114000000D03*
D50*
X196150000Y-117450000D03*
D51*
X186200000Y-119500000D03*
X189000000Y-115500000D03*
D50*
X200100000Y-118325000D03*
X204499511Y-118325000D03*
X188000000Y-145875000D03*
X201950000Y-115700000D03*
D51*
X165000000Y-130500000D03*
X192000000Y-131500000D03*
X171000000Y-132000000D03*
X192000000Y-134000000D03*
X165000000Y-133500000D03*
X171000000Y-136000000D03*
X198500000Y-134000000D03*
X175500000Y-134000000D03*
X169500000Y-132000000D03*
X196500000Y-131500000D03*
X175500000Y-136000000D03*
X172500000Y-134000000D03*
X178500000Y-136000000D03*
X196500000Y-134000000D03*
X166500000Y-132000000D03*
X165000000Y-129000000D03*
X175500000Y-132000000D03*
X165000000Y-135000000D03*
X198500000Y-131500000D03*
X177000000Y-134000000D03*
X166500000Y-136500000D03*
X188000000Y-132600000D03*
X166500000Y-130500000D03*
X172500000Y-136000000D03*
X168000000Y-136500000D03*
X177000000Y-132000000D03*
X171000000Y-134000000D03*
X174000000Y-130500000D03*
X166500000Y-129000000D03*
X172500000Y-128500000D03*
X171000000Y-128500000D03*
X175500000Y-130500000D03*
X172500000Y-130500000D03*
X172600000Y-131900000D03*
X165000000Y-136500000D03*
X177000000Y-136000000D03*
X174000000Y-132000000D03*
X174000000Y-134000000D03*
X178500000Y-132000000D03*
D50*
X199050000Y-115575000D03*
X175775000Y-139175000D03*
D51*
X178500000Y-134000000D03*
X166500000Y-135000000D03*
X171000000Y-130500000D03*
X165000000Y-132000000D03*
X190000000Y-134000000D03*
X174000000Y-136000000D03*
X169500000Y-136500000D03*
X168000000Y-132000000D03*
X166500000Y-133500000D03*
X190000000Y-131500000D03*
X171000000Y-117000000D03*
X171000000Y-120000000D03*
X173000000Y-120000000D03*
X171000000Y-118500000D03*
X165000000Y-115500000D03*
X165000000Y-118500000D03*
X173000000Y-117000000D03*
X165000000Y-117000000D03*
X169000000Y-117000000D03*
X167000000Y-114000000D03*
X165000000Y-120000000D03*
X173000000Y-114000000D03*
X171000000Y-114000000D03*
X167000000Y-118500000D03*
X167000000Y-117000000D03*
X167000000Y-120000000D03*
X165000000Y-114000000D03*
X173000000Y-118500000D03*
X173000000Y-115500000D03*
X167000000Y-115500000D03*
X171000000Y-115500000D03*
G36*
X205342121Y-106170002D02*
G01*
X205388614Y-106223658D01*
X205400000Y-106276000D01*
X205400000Y-108374000D01*
X205379998Y-108442121D01*
X205326342Y-108488614D01*
X205274000Y-108500000D01*
X199526000Y-108500000D01*
X199457879Y-108479998D01*
X199411386Y-108426342D01*
X199400000Y-108374000D01*
X199400000Y-106276000D01*
X199420002Y-106207879D01*
X199473658Y-106161386D01*
X199526000Y-106150000D01*
X205274000Y-106150000D01*
X205342121Y-106170002D01*
G37*
M02*
