M48
; DRILL file {KiCad 6.0.1-79c1e3a40b~116~ubuntu20.04.1} date Sat 22 Jan 2022 21:44:04 CET
; FORMAT={-:-/ absolute / metric / decimal}
; #@! TF.CreationDate,2022-01-22T21:44:04+01:00
; #@! TF.GenerationSoftware,Kicad,Pcbnew,6.0.1-79c1e3a40b~116~ubuntu20.04.1
; #@! TF.FileFunction,Plated,1,4,PTH
FMAT,2
METRIC
; #@! TA.AperFunction,Plated,PTH,ViaDrill
T1C0.250
; #@! TA.AperFunction,Plated,PTH,ViaDrill
T2C0.400
; #@! TA.AperFunction,Plated,PTH,ComponentDrill
T3C1.000
; #@! TA.AperFunction,Plated,PTH,ComponentDrill
T4C1.300
; #@! TA.AperFunction,Plated,PTH,ComponentDrill
T5C3.200
%
G90
G05
T1
X165.0Y-109.4
X165.0Y-112.4
X165.0Y-121.9
X165.0Y-124.15
X165.0Y-126.6
X165.0Y-137.4
X165.0Y-141.9
X165.0Y-146.4
X166.0Y-147.4
X166.5Y-107.4
X169.0Y-121.9
X169.0Y-126.6
X169.0Y-137.4
X169.0Y-141.9
X169.5Y-106.9
X169.5Y-112.4
X170.5Y-147.4
X172.5Y-139.9
X172.5Y-144.9
X173.0Y-121.9
X173.0Y-124.15
X173.0Y-126.6
X174.0Y-106.9
X174.0Y-109.4
X174.0Y-112.4
X174.4Y-117.0
X175.0Y-137.4
X175.0Y-141.9
X175.0Y-147.4
X175.775Y-139.175
X175.8Y-127.2
X176.5Y-137.4
X177.0Y-140.9
X177.0Y-144.4
X178.0Y-117.0
X178.1Y-128.2
X178.2Y-129.8
X178.4Y-120.8
X178.5Y-106.9
X178.5Y-109.4
X178.5Y-112.4
X179.5Y-147.4
X179.585Y-144.425
X179.6Y-140.9
X180.8Y-128.8
X182.0Y-140.9
X182.0Y-144.4
X183.0Y-106.9
X183.0Y-109.4
X183.0Y-112.4
X183.2Y-128.4
X184.0Y-147.4
X184.6Y-140.9
X184.8Y-144.4
X186.8Y-128.8
X187.5Y-106.9
X187.5Y-112.4
X187.5Y-138.4
X187.5Y-142.4
X187.5Y-144.9
X188.0Y-129.8
X188.0Y-145.875
X188.5Y-147.45
X188.6Y-135.9
X189.5Y-145.6
X191.2Y-145.2
X191.5Y-111.65
X192.0Y-106.9
X192.0Y-135.9
X192.0Y-138.4
X192.4Y-113.3
X193.0Y-145.2
X193.0Y-147.45
X194.8Y-114.4
X194.8Y-145.2
X196.0Y-118.5
X196.0Y-119.2
X196.0Y-136.0
X196.0Y-138.4
X196.15Y-117.45
X196.5Y-106.9
X196.5Y-109.4
X196.5Y-112.4
X196.8Y-145.2
X196.95Y-118.5
X196.95Y-119.2
X197.4Y-114.0
X197.5Y-147.45
X198.0Y-117.4
X198.0Y-118.5
X199.0Y-106.9
X199.0Y-109.4
X199.0Y-112.4
X199.0Y-145.2
X199.05Y-114.95
X199.05Y-115.575
X199.1Y-121.7
X199.5Y-136.0
X199.5Y-138.4
X199.522Y-116.155
X199.825Y-114.575
X200.1Y-118.325
X200.2Y-145.2
X201.3Y-120.3
X201.6Y-116.8
X201.95Y-115.7
X202.0Y-109.4
X202.0Y-112.4
X202.0Y-114.4
X202.0Y-147.45
X202.2Y-145.2
X202.3Y-116.8
X202.5Y-124.8
X202.5Y-128.4
X202.5Y-132.2
X202.6Y-135.4
X202.7Y-121.7
X203.383Y-119.5
X203.5Y-136.4
X204.0Y-114.4
X204.2Y-141.8
X204.4Y-119.6
X204.4Y-138.4
X204.5Y-118.325
X204.5Y-109.4
X204.5Y-112.4
X204.5Y-121.4
X205.5Y-124.6
X205.5Y-128.2
X205.5Y-132.0
X206.0Y-106.8
X206.4Y-120.0
X206.5Y-147.45
X207.0Y-116.9
X208.2Y-137.2
X210.5Y-106.9
X210.5Y-116.9
X210.8Y-123.2
X210.8Y-130.8
X211.0Y-127.0
X211.0Y-133.8
X211.0Y-147.45
X211.2Y-120.9
X212.5Y-108.9
X212.6Y-113.4
X213.0Y-117.9
X213.0Y-122.4
X213.0Y-126.9
X213.0Y-131.4
X213.0Y-135.9
X213.0Y-140.4
X213.0Y-144.9
T2
X165.0Y-114.0
X165.0Y-115.5
X165.0Y-117.0
X165.0Y-118.5
X165.0Y-120.0
X165.0Y-129.0
X165.0Y-130.5
X165.0Y-132.0
X165.0Y-133.5
X165.0Y-135.0
X165.0Y-136.5
X166.5Y-129.0
X166.5Y-130.5
X166.5Y-132.0
X166.5Y-133.5
X166.5Y-135.0
X166.5Y-136.5
X167.0Y-114.0
X167.0Y-115.5
X167.0Y-117.0
X167.0Y-118.5
X167.0Y-120.0
X168.0Y-132.0
X168.0Y-136.5
X169.0Y-117.0
X169.5Y-132.0
X169.5Y-136.5
X171.0Y-114.0
X171.0Y-115.5
X171.0Y-117.0
X171.0Y-118.5
X171.0Y-120.0
X171.0Y-128.5
X171.0Y-130.5
X171.0Y-132.0
X171.0Y-134.0
X171.0Y-136.0
X172.5Y-128.5
X172.5Y-130.5
X172.5Y-134.0
X172.5Y-136.0
X172.6Y-131.9
X173.0Y-114.0
X173.0Y-115.5
X173.0Y-117.0
X173.0Y-118.5
X173.0Y-120.0
X174.0Y-130.5
X174.0Y-132.0
X174.0Y-134.0
X174.0Y-136.0
X175.5Y-130.5
X175.5Y-132.0
X175.5Y-134.0
X175.5Y-136.0
X177.0Y-132.0
X177.0Y-134.0
X177.0Y-136.0
X178.5Y-132.0
X178.5Y-134.0
X178.5Y-136.0
X181.0Y-127.5
X182.0Y-114.0
X182.0Y-117.0
X182.05Y-115.45
X182.5Y-123.0
X182.5Y-124.5
X182.5Y-126.0
X182.5Y-127.5
X183.5Y-114.0
X183.5Y-117.0
X183.55Y-115.45
X183.8Y-119.5
X184.0Y-123.0
X184.0Y-124.5
X184.0Y-126.0
X184.0Y-127.5
X185.0Y-114.0
X185.0Y-117.0
X185.05Y-115.45
X185.5Y-123.0
X185.5Y-124.5
X185.5Y-126.0
X185.5Y-127.5
X186.2Y-119.5
X187.0Y-123.0
X187.0Y-124.5
X187.0Y-126.0
X187.0Y-127.5
X188.0Y-132.6
X188.5Y-123.0
X188.5Y-124.5
X188.5Y-126.0
X188.5Y-127.5
X189.0Y-115.5
X189.6Y-114.5
X190.0Y-127.0
X190.0Y-129.0
X190.0Y-131.5
X190.0Y-134.0
X190.5Y-115.5
X191.2Y-118.3
X192.0Y-115.5
X192.0Y-127.0
X192.0Y-129.0
X192.0Y-131.5
X192.0Y-134.0
X192.6Y-114.5
X193.5Y-115.5
X194.0Y-127.0
X194.0Y-129.0
X194.8Y-115.7
X196.0Y-127.0
X196.0Y-129.0
X196.5Y-131.5
X196.5Y-134.0
X198.0Y-127.0
X198.0Y-129.0
X198.5Y-131.5
X198.5Y-134.0
T3
X175.785Y-143.16
X175.785Y-145.7
X178.325Y-143.16
X178.325Y-145.7
X180.865Y-143.16
X180.865Y-145.7
X183.405Y-143.16
X183.405Y-145.7
X190.262Y-137.65
X190.262Y-140.19
X190.262Y-142.73
X192.55Y-110.3
X193.945Y-137.65
X193.945Y-140.19
X193.945Y-142.73
X195.09Y-110.3
X197.628Y-137.65
X197.628Y-140.19
X197.628Y-142.73
X201.311Y-137.65
X201.311Y-140.19
X201.311Y-142.73
X203.358Y-123.05
X203.358Y-126.7
X203.358Y-130.35
X203.358Y-134.0
X205.898Y-123.05
X205.898Y-126.7
X205.898Y-130.35
X205.898Y-134.0
X207.775Y-119.4
X208.438Y-123.05
X208.438Y-126.7
X208.438Y-130.35
X208.438Y-134.0
X210.315Y-119.4
T4
X168.662Y-109.6
X168.662Y-114.6
X168.662Y-119.6
X168.662Y-124.6
X168.662Y-129.75
X168.662Y-134.75
X168.662Y-139.75
X168.662Y-144.75
T5
X178.6Y-124.5
X208.1Y-111.4
X208.1Y-142.65
T0
M30
